<?xml version="1.0" encoding="utf-8"?>
<!-- Generator: Adobe Illustrator 23.1.1, SVG Export Plug-In . SVG Version: 6.00 Build 0)  -->
<svg version="1.1" id="Layer_1" xmlns="http://www.w3.org/2000/svg" xmlns:xlink="http://www.w3.org/1999/xlink" x="0px" y="0px"
	 viewBox="0 0 2109.21 271.26" style="enable-background:new 0 0 2109.21 271.26;" xml:space="preserve">
<style type="text/css">
	.st0{clip-path:url(#SVGID_2_);}
	.st1{clip-path:url(#SVGID_4_);}
	.st2{fill:none;stroke:#FFFFFF;stroke-miterlimit:10;}
	.st3{fill:none;stroke:#FFFFFF;stroke-width:0.5;stroke-miterlimit:10;}
</style>
<g>
	<path d="M190.69,176.59h-71.37v-1.99h6.42c3.82,0,11.61-2.75,11.61-11.16V68.4c-0.15-8.4-2.29-12.53-19.56-12.53
		c-25.98,0-43.86,14.21-43.86,35.76c0,18.95,11.31,27.81,23.23,27.81c7.03,0,11.16-2.45,11.16-4.28c0-1.07-1.22-0.76-2.75-0.76
		c-10.85,0-16.2-7.49-16.2-14.98c0-7.64,5.65-15.28,17.42-15.28c8.4,0,16.81,5.81,16.81,15.89c0,10.24-9.63,21.39-25.37,21.39
		c-21.09,0-33.47-15.28-33.47-31.48c0-18.03,13.45-36.52,44.62-36.52c12.07,0,17.12,0.92,25.83,0.92h55.47v1.83h-6.42
		c-5.96,0-11,5.2-11,12.23v95.21c0,8.25,5.65,11,9.93,11h7.49V176.59z"/>
	<path d="M241.12,180.11c-13.45,0-22.77-7.18-30.41-7.18c-6.57,0-8.25,3.36-8.71,4.58h-1.38V139h1.22
		c1.99,10.09,16.66,39.27,37.44,39.27c7.95,0,11.92-4.89,11.92-11.61c0-22.46-50.12-9.63-50.12-46.61
		c0-20.78,19.87-29.19,38.2-29.19c18.95,0,29.95,6.88,29.95,15.89c0,6.57-5.65,11.77-13.3,11.77c-6.88,0-13.6-4.74-13.6-11.16
		c0-3.67,1.68-5.96,3.21-7.33c1.38-1.38,2.75-2.14,2.75-3.52c0-1.99-4.13-3.97-9.32-3.97c-7.34,0-13.75,4.13-13.75,10.7
		c0,23.23,49.36,9.32,49.36,46.15C274.58,167.73,260.22,180.11,241.12,180.11z"/>
	<path d="M347.63,223.96c-35.91,0-54.86-19.41-54.86-52.72V63.2c0-4.13-2.14-6.72-6.42-6.72h-3.97v-1.99h42.02v123.32
		c0,31.94,11,43.86,27.97,43.86c7.34,0,14.36-4.28,14.36-7.18c0-0.92-0.76-0.76-2.14-0.76c-8.56,0-15.59-6.11-15.59-14.37
		c0-9.32,7.64-15.74,16.05-15.74c8.86,0,15.74,7.49,15.74,15.74C380.79,211.74,368.11,223.96,347.63,223.96z"/>
	<path d="M384.46,178.88c-22.16,0-45.23-13.45-45.23-42.02c0-27.2,21.24-45.39,43.25-45.39c23.69,0,36.98,20.78,36.98,37.59v4.89
		h-47.83c-0.15,1.38-0.15,2.75-0.15,4.13c0,31.79,5.96,38.36,17.88,38.36c7.64,0,16.35-3.52,16.35-7.49c0-0.61-0.31-0.76-0.92-0.76
		c-0.46,0-1.07,0-1.53,0c-8.25,0-15.89-6.42-15.89-14.98c0-8.41,7.03-15.13,16.05-15.13s16.2,6.27,16.2,15.13
		C419.61,166.2,406.92,178.88,384.46,178.88z M389.04,131.66v-4.43c0-22.77-0.46-33.77-7.33-33.77c-6.72,0-9.63,14.06-10.09,38.2
		H389.04z"/>
	<path d="M650.51,139c0,28.27-2.9,39.43-25.83,39.43c-18.64,0-26.74-12.23-26.74-25.06c0-7.18,0.61-12.84,0.61-23.23
		c0-11.46-3.36-16.2-12.84-16.2h-11v52.42c0,6.11,2.44,8.4,6.72,8.4h7.18v1.83h-63.11v-1.83h6.42c5.65,0,8.25-3.06,8.25-8.71v-97.5
		c0-8.4-1.83-12.68-19.1-12.68c-25.98,0-44.01,14.21-44.01,35.76c0,18.95,11.46,27.81,23.38,27.81c7.03,0,11.16-2.45,11.16-4.28
		c0-1.07-1.38-0.76-2.75-0.76c-10.85,0-16.2-7.49-16.2-14.98c0-7.64,5.65-15.28,17.42-15.28c8.4,0,16.81,5.81,16.81,15.89
		c0,10.24-9.63,21.39-25.37,21.39c-21.09,0-33.47-15.28-33.47-31.48c0-18.03,13.45-36.52,44.62-36.52c12.07,0,17.12,0.92,25.67,0.92
		h46c38.97,0,52.72,12.68,52.72,29.49c0,17.12-18.64,25.37-31.63,28.88v0.61c9.93,2.29,30.72,7.49,30.72,27.05v22.01
		c0,5.2,1.53,7.79,4.74,7.79c6.11,0,7.95-14.37,7.95-31.17H650.51z M585.11,56.32h-10.39v55.63h10.7c12.53,0,16.2-3.82,16.2-27.51
		C601.61,59.07,595.35,56.32,585.11,56.32z"/>
	<path d="M701.56,179.49c-25.21,0-45.69-19.87-45.69-44.32c0-24.3,20.48-44.16,45.69-44.16s45.69,19.87,45.69,44.16
		C747.25,159.63,726.77,179.49,701.56,179.49z M701.71,93.31c-9.17,0-10.85,7.64-10.85,42.48c0,36.52,2.6,41.41,10.85,41.41
		c8.56,0,10.85-7.03,10.85-40.95C712.56,106.91,713.02,93.31,701.71,93.31z"/>
	<path d="M892.12,82.61c-9.32,0-15.89-6.72-15.89-14.98c0-9.47,7.33-15.74,15.74-15.74c5.5,0,7.49,2.14,8.71,2.14
		c0.46,0,0.92-0.46,0.92-1.83c0-5.35-6.57-11.46-16.81-11.46c-29.8,0-46.61,32.55-57.31,65.71l-26.59,83.13
		c-4.28,13.29-12.68,19.87-25.21,19.87c-11.16,0-18.95-8.71-18.95-18.34c0-9.47,7.49-16.05,15.74-16.05
		c9.02,0,15.13,7.33,15.13,14.67c0,7.95-5.96,14.36-14.21,14.36c-2.9,0-5.65-1.07-6.88-1.07c-0.31,0-0.46,0-0.46,0.31
		c0,2.29,4.89,4.28,10.09,4.28c7.64,0,17.57-3.51,22.31-17.42l4.58-13.6h-12.38l-33.62-73.2c-2.45-5.2-5.5-7.49-8.4-7.49h-3.52
		v-1.99h55.32v1.99h-3.82c-2.29,0-3.97,1.22-3.97,3.52c0,0.76,0.15,1.83,0.61,2.9l18.19,45.85l11.46-44.93
		c9.63-37.9,25.52-65.86,56.7-65.86c20.94,0,30.72,13.91,30.72,26.44C910.31,73.75,904.04,82.61,892.12,82.61z"/>
	<path d="M934.91,223.96c-35.91,0-54.86-19.41-54.86-52.72v-9.02c0,0-1.38,4.13-4.13,8.1c-2.75,4.13-6.27,8.1-17.27,8.1
		c-16.05,0-26.59-8.86-26.59-21.85c0-20.17,20.78-21.09,29.19-23.23c8.4-2.14,19.25-4.43,19.25-23.53
		c0-13.75-4.43-16.35-11.46-16.35s-14.67,3.97-14.67,6.27c0,0.76,0.31,0.92,0.61,0.92c0.46,0,1.07-0.15,1.68-0.15
		c7.64,0,13.29,6.42,13.29,13.75c0,8.71-7.18,16.05-15.59,16.05c-8.25,0-16.05-6.27-16.05-16.35c0-11.31,11.46-22.16,36.37-22.16
		c21.09,0,35.61,8.25,35.61,24.6v61.74c0,31.94,12.38,43.55,29.34,43.55c7.34,0,14.36-4.28,14.36-7.18c0-0.92-0.76-0.76-2.14-0.76
		c-8.56,0-15.59-6.11-15.59-14.37c0-9.32,7.49-15.74,16.05-15.74c8.86,0,15.74,7.49,15.74,15.74
		C968.07,211.74,955.39,223.96,934.91,223.96z M879.44,124.94c-0.31,0-2.45,2.75-5.65,5.2c-2.75,2.14-9.93,4.89-9.93,25.37
		c0,17.42,0.61,18.95,4.43,18.95c4.74,0,11.61-12.23,11.61-22.46v-26.13c0,0,0,0,0-0.15C879.9,125.24,879.9,124.94,879.44,124.94z"
		/>
	<path d="M974.19,176.59h-53.79v-1.99h4.58c4.43,0,7.33-3.06,7.33-7.18V63.2c0-4.13-2.14-6.72-6.27-6.72h-4.13v-1.99h42.33v112.93
		c0,4.13,1.83,7.18,5.5,7.18h4.43V176.59z"/>
	<path d="M1024,178.88c-22.16,0-45.23-13.45-45.23-42.02c0-27.2,21.24-45.39,43.25-45.39c23.69,0,36.98,20.78,36.98,37.59v4.89
		h-47.83c-0.15,1.38-0.15,2.75-0.15,4.13c0,31.79,5.96,38.36,17.88,38.36c7.64,0,16.35-3.52,16.35-7.49c0-0.61-0.31-0.76-0.92-0.76
		c-0.46,0-1.07,0-1.53,0c-8.25,0-15.89-6.42-15.89-14.98c0-8.41,7.03-15.13,16.05-15.13c9.02,0,16.2,6.27,16.2,15.13
		C1059.15,166.2,1046.47,178.88,1024,178.88z M1028.59,131.66v-4.43c0-22.77-0.46-33.77-7.33-33.77c-6.72,0-9.63,14.06-10.09,38.2
		H1028.59z"/>
	<path d="M1285.93,56.32h-2.75c-7.18,0-16.96,5.5-16.96,22.31v98.11h-28.88l-55.78-104.37c0,0,0,73.96-0.15,75.34
		c0,17.12,6.72,27.05,18.19,27.05h4.28v1.99h-42.79v-1.99h4.89c5.96,0,13.45-10.09,13.45-28.12V68.7c0-8.4-2.14-12.84-19.41-12.84
		c-25.98,0-44.01,14.21-44.01,35.76c0,18.95,11.46,27.81,23.38,27.81c7.03,0,11.16-2.45,11.16-4.28c0-1.07-1.38-0.76-2.75-0.76
		c-10.85,0-16.2-7.49-16.2-14.98c0-7.64,5.65-15.28,17.42-15.28c8.41,0,16.81,5.81,16.81,15.89c0,10.24-9.63,21.39-25.37,21.39
		c-21.09,0-33.47-15.28-33.47-31.48c0-18.03,13.45-36.52,44.62-36.52c12.07,0,17.12,1.07,25.67,1.07h41.41l45.39,86.34V78.48
		c0-13.75-8.1-22.16-15.74-22.16h-6.88v-1.83h44.47V56.32z"/>
	<path d="M1384.65,223.96c-35.91,0-54.86-19.41-54.86-52.72v-9.02c0,0-1.38,4.13-4.13,8.1c-2.75,4.13-6.27,8.1-17.27,8.1
		c-16.05,0-26.59-8.86-26.59-21.85c0-20.17,20.78-21.09,29.19-23.23c8.41-2.14,19.25-4.43,19.25-23.53
		c0-13.75-4.43-16.35-11.46-16.35c-7.03,0-14.67,3.97-14.67,6.27c0,0.76,0.31,0.92,0.61,0.92c0.46,0,1.07-0.15,1.68-0.15
		c7.64,0,13.29,6.42,13.29,13.75c0,8.71-7.18,16.05-15.59,16.05c-8.25,0-16.05-6.27-16.05-16.35c0-11.31,11.46-22.16,36.37-22.16
		c21.09,0,35.61,8.25,35.61,24.6v61.74c0,31.94,12.38,43.55,29.34,43.55c7.33,0,14.36-4.28,14.36-7.18c0-0.92-0.76-0.76-2.14-0.76
		c-8.56,0-15.59-6.11-15.59-14.37c0-9.32,7.49-15.74,16.05-15.74c8.86,0,15.74,7.49,15.74,15.74
		C1417.81,211.74,1405.13,223.96,1384.65,223.96z M1329.18,124.94c-0.31,0-2.45,2.75-5.65,5.2c-2.75,2.14-9.93,4.89-9.93,25.37
		c0,17.42,0.61,18.95,4.43,18.95c4.74,0,11.61-12.23,11.61-22.46v-26.13c0,0,0,0,0-0.15
		C1329.64,125.24,1329.64,124.94,1329.18,124.94z"/>
	<path d="M1423.47,148.93c0,22.77-9.02,30.26-23.38,30.26c-13.14,0-23.38-5.35-23.38-17.57V96.06h-8.41v-2.29h5.2
		c15.43,0,33.77-13.29,33.77-30.1l1.99,0.15v29.95h14.06v2.29h-14.06v69.23c0,5.81,1.68,6.57,3.82,6.57c4.13,0,8.56-7.95,8.56-22.92
		H1423.47z"/>
	<path d="M1439.06,105.23v-1.68c14.52,0,23.84-10.24,23.84-19.87c0-1.07,0-1.68-0.61-1.68c-1.07,0-4.43,3.67-12.07,3.67
		c-8.86,0-17.73-7.18-17.73-16.2c0-9.63,8.41-16.2,17.42-16.2c11,0,19.1,7.95,19.1,19.41
		C1469.01,91.32,1457.24,105.23,1439.06,105.23z"/>
	<path d="M1527.84,176.59h-53.79v-1.99h4.58c4.43,0,7.33-3.06,7.33-7.18V63.2c0-4.13-2.14-6.72-6.27-6.72h-4.13v-1.99h42.33v112.93
		c0,4.13,1.83,7.18,5.5,7.18h4.43V176.59z"/>
	<path d="M1692.58,124.48c-4.74,0-8.25-0.76-11-1.83v41.41c0,7.18,3.67,10.54,12.53,10.54h6.26v1.99h-69.99v-1.99h5.35
		c7.03,0,10.24-4.13,10.24-11.16V68.4c0-8.4-1.99-12.68-19.25-12.68c-25.98,0-44.01,14.21-44.01,35.76
		c0,18.95,11.46,27.81,23.38,27.81c7.03,0,11.16-2.45,11.16-4.28c0-1.07-1.38-0.76-2.75-0.76c-10.85,0-16.2-7.49-16.2-14.98
		c0-7.64,5.65-15.28,17.42-15.28c8.41,0,16.81,5.81,16.81,15.89c0,10.24-9.63,21.39-25.37,21.39c-21.09,0-33.47-15.28-33.47-31.48
		c0-18.03,13.45-36.52,44.62-36.52c12.07,0,17.12,1.07,25.67,1.07h54.4c25.52,0,40.96,17.12,40.96,33.77
		C1739.34,109.96,1721.61,124.48,1692.58,124.48z M1689.83,56.17h-8.25v64.18c1.83,1.22,4.58,2.14,8.41,2.14
		c9.78,0,13.91-3.21,13.91-33.01C1703.89,56.94,1697.16,56.17,1689.83,56.17z"/>
	<path d="M1843.11,223.96c-35.91,0-54.86-19.41-54.86-52.72v-9.02c0,0-1.38,4.13-4.13,8.1c-2.75,4.13-6.27,8.1-17.27,8.1
		c-16.05,0-26.59-8.86-26.59-21.85c0-20.17,20.78-21.09,29.19-23.23c8.4-2.14,19.25-4.43,19.25-23.53
		c0-13.75-4.43-16.35-11.46-16.35c-7.03,0-14.67,3.97-14.67,6.27c0,0.76,0.31,0.92,0.61,0.92c0.46,0,1.07-0.15,1.68-0.15
		c7.64,0,13.29,6.42,13.29,13.75c0,8.71-7.18,16.05-15.59,16.05c-8.25,0-16.05-6.27-16.05-16.35c0-11.31,11.46-22.16,36.37-22.16
		c21.09,0,35.61,8.25,35.61,24.6v61.74c0,31.94,12.38,43.55,29.34,43.55c7.34,0,14.37-4.28,14.37-7.18c0-0.92-0.76-0.76-2.14-0.76
		c-8.56,0-15.59-6.11-15.59-14.37c0-9.32,7.49-15.74,16.05-15.74c8.86,0,15.74,7.49,15.74,15.74
		C1876.27,211.74,1863.58,223.96,1843.11,223.96z M1787.63,124.94c-0.31,0-2.44,2.75-5.65,5.2c-2.75,2.14-9.93,4.89-9.93,25.37
		c0,17.42,0.61,18.95,4.43,18.95c4.74,0,11.61-12.23,11.61-22.46v-26.13c0,0,0,0,0-0.15
		C1788.09,125.24,1788.09,124.94,1787.63,124.94z"/>
	<path d="M1891.7,126.01c-7.03,0-14.82-5.81-14.82-14.21c0-9.17,6.72-15.28,14.21-15.28c5.5,0,7.95,2.29,8.86,2.29
		c0.31,0,0.76-0.31,0.76-0.76c0-2.44-4.43-6.27-10.85-6.27c-6.57,0-16.66,5.04-16.66,22.16v53.94c0,4.89,1.99,6.88,4.43,6.88h5.81
		v1.83h-54.86v-1.83h5.2c4.43,0,7.79-2.45,7.79-6.57v-65.25c0-4.13-2.14-7.03-5.65-7.03h-5.2v-1.99h40.8l0.76,9.47
		c1.83-3.97,6.88-13.29,18.03-13.29c9.17,0,16.96,7.64,16.96,18.64S1899.65,126.01,1891.7,126.01z"/>
	<path d="M1919.82,63.2c0-4.13-2.14-6.72-6.42-6.72h-3.97v-1.99h41.26v75.8c13.91-20.32,18.8-27.35,18.8-27.35
		c5.65-8.25,12.53-12.53,20.48-12.53c9.78,0,16.05,6.42,16.05,14.98c0,8.4-7.03,15.13-15.59,15.13c-7.79,0-15.43-4.74-15.43-13.29
		c0-1.99-0.46-2.44-1.07-2.44c-2.6,0-7.64,5.5-7.64,8.1l36.06,55.62c2.9,4.28,6.11,5.96,9.63,5.96h3.06v2.14h-43.55l-20.78-33.31
		v24.15c0,4.13,1.83,7.18,5.5,7.18h2.45v1.99h-49.21v-1.99h2.9c4.43,0,7.49-3.06,7.49-7.18V63.2z"/>
</g>
<g>
	<path d="M-2301.18,176.59h-71.37v-1.99h6.42c3.82,0,11.61-2.75,11.61-11.16V68.4c-0.15-8.4-2.29-12.53-19.56-12.53
		c-25.98,0-43.86,14.21-43.86,35.76c0,18.95,11.31,27.81,23.23,27.81c7.03,0,11.16-2.45,11.16-4.28c0-1.07-1.22-0.76-2.75-0.76
		c-10.85,0-16.2-7.49-16.2-14.98c0-7.64,5.65-15.28,17.42-15.28c8.4,0,16.81,5.81,16.81,15.89c0,10.24-9.63,21.39-25.37,21.39
		c-21.09,0-33.47-15.28-33.47-31.48c0-18.03,13.45-36.52,44.62-36.52c12.07,0,17.12,0.92,25.83,0.92h55.47v1.83h-6.42
		c-5.96,0-11,5.2-11,12.23v95.21c0,8.25,5.65,11,9.93,11h7.49V176.59z"/>
	<path d="M-2250.75,180.11c-13.45,0-22.77-7.18-30.41-7.18c-6.57,0-8.25,3.36-8.71,4.58h-1.38V139h1.22
		c1.99,10.09,16.66,39.27,37.44,39.27c7.95,0,11.92-4.89,11.92-11.61c0-22.46-50.12-9.63-50.12-46.61
		c0-20.78,19.87-29.19,38.2-29.19c18.95,0,29.95,6.88,29.95,15.89c0,6.57-5.65,11.77-13.3,11.77c-6.88,0-13.6-4.74-13.6-11.16
		c0-3.67,1.68-5.96,3.21-7.33c1.38-1.38,2.75-2.14,2.75-3.52c0-1.99-4.13-3.97-9.32-3.97c-7.34,0-13.75,4.13-13.75,10.7
		c0,23.23,49.36,9.32,49.36,46.15C-2217.28,167.73-2231.65,180.11-2250.75,180.11z"/>
	<path d="M-2144.24,223.96c-35.91,0-54.86-19.41-54.86-52.72V63.2c0-4.13-2.14-6.72-6.42-6.72h-3.97v-1.99h42.02v123.32
		c0,31.94,11,43.86,27.97,43.86c7.34,0,14.36-4.28,14.36-7.18c0-0.92-0.76-0.76-2.14-0.76c-8.56,0-15.59-6.11-15.59-14.37
		c0-9.32,7.64-15.74,16.05-15.74c8.86,0,15.74,7.49,15.74,15.74C-2111.07,211.74-2123.76,223.96-2144.24,223.96z"/>
	<path d="M-2107.41,178.88c-22.16,0-45.23-13.45-45.23-42.02c0-27.2,21.24-45.39,43.25-45.39c23.69,0,36.98,20.78,36.98,37.59v4.89
		h-47.83c-0.15,1.38-0.15,2.75-0.15,4.13c0,31.79,5.96,38.36,17.88,38.36c7.64,0,16.35-3.52,16.35-7.49c0-0.61-0.31-0.76-0.92-0.76
		c-0.46,0-1.07,0-1.53,0c-8.25,0-15.89-6.42-15.89-14.98c0-8.41,7.03-15.13,16.05-15.13s16.2,6.27,16.2,15.13
		C-2072.26,166.2-2084.94,178.88-2107.41,178.88z M-2102.82,131.66v-4.43c0-22.77-0.46-33.77-7.33-33.77
		c-6.72,0-9.63,14.06-10.09,38.2H-2102.82z"/>
	<path d="M-1841.35,139c0,28.27-2.9,39.43-25.83,39.43c-18.64,0-26.74-12.23-26.74-25.06c0-7.18,0.61-12.84,0.61-23.23
		c0-11.46-3.36-16.2-12.84-16.2h-11v52.42c0,6.11,2.44,8.4,6.72,8.4h7.18v1.83h-63.11v-1.83h6.42c5.65,0,8.25-3.06,8.25-8.71v-97.5
		c0-8.4-1.83-12.68-19.1-12.68c-25.98,0-44.01,14.21-44.01,35.76c0,18.95,11.46,27.81,23.38,27.81c7.03,0,11.16-2.45,11.16-4.28
		c0-1.07-1.38-0.76-2.75-0.76c-10.85,0-16.2-7.49-16.2-14.98c0-7.64,5.65-15.28,17.42-15.28c8.4,0,16.81,5.81,16.81,15.89
		c0,10.24-9.63,21.39-25.37,21.39c-21.09,0-33.47-15.28-33.47-31.48c0-18.03,13.45-36.52,44.62-36.52c12.07,0,17.12,0.92,25.67,0.92
		h46c38.97,0,52.72,12.68,52.72,29.49c0,17.12-18.64,25.37-31.63,28.88v0.61c9.93,2.29,30.72,7.49,30.72,27.05v22.01
		c0,5.2,1.53,7.79,4.74,7.79c6.11,0,7.95-14.37,7.95-31.17H-1841.35z M-1906.76,56.32h-10.39v55.63h10.7
		c12.53,0,16.2-3.82,16.2-27.51C-1890.26,59.07-1896.52,56.32-1906.76,56.32z"/>
	<path d="M-1790.31,179.49c-25.21,0-45.69-19.87-45.69-44.32c0-24.3,20.48-44.16,45.69-44.16s45.69,19.87,45.69,44.16
		C-1744.62,159.63-1765.1,179.49-1790.31,179.49z M-1790.16,93.31c-9.17,0-10.85,7.64-10.85,42.48c0,36.52,2.6,41.41,10.85,41.41
		c8.56,0,10.85-7.03,10.85-40.95C-1779.31,106.91-1778.85,93.31-1790.16,93.31z"/>
	<path d="M-1599.75,82.61c-9.32,0-15.89-6.72-15.89-14.98c0-9.47,7.33-15.74,15.74-15.74c5.5,0,7.49,2.14,8.71,2.14
		c0.46,0,0.92-0.46,0.92-1.83c0-5.35-6.57-11.46-16.81-11.46c-29.8,0-46.61,32.55-57.31,65.71l-26.59,83.13
		c-4.28,13.29-12.68,19.87-25.21,19.87c-11.16,0-18.95-8.71-18.95-18.34c0-9.47,7.49-16.05,15.74-16.05
		c9.02,0,15.13,7.33,15.13,14.67c0,7.95-5.96,14.36-14.21,14.36c-2.9,0-5.65-1.07-6.88-1.07c-0.31,0-0.46,0-0.46,0.31
		c0,2.29,4.89,4.28,10.09,4.28c7.64,0,17.57-3.51,22.31-17.42l4.58-13.6h-12.38l-33.62-73.2c-2.45-5.2-5.5-7.49-8.4-7.49h-3.52
		v-1.99h55.32v1.99h-3.82c-2.29,0-3.97,1.22-3.97,3.52c0,0.76,0.15,1.83,0.61,2.9l18.19,45.85l11.46-44.93
		c9.63-37.9,25.52-65.86,56.7-65.86c20.94,0,30.72,13.91,30.72,26.44C-1581.56,73.75-1587.83,82.61-1599.75,82.61z"/>
	<path d="M-1556.96,223.96c-35.91,0-54.86-19.41-54.86-52.72v-9.02c0,0-1.38,4.13-4.13,8.1c-2.75,4.13-6.27,8.1-17.27,8.1
		c-16.05,0-26.59-8.86-26.59-21.85c0-20.17,20.78-21.09,29.19-23.23c8.4-2.14,19.25-4.43,19.25-23.53
		c0-13.75-4.43-16.35-11.46-16.35s-14.67,3.97-14.67,6.27c0,0.76,0.31,0.92,0.61,0.92c0.46,0,1.07-0.15,1.68-0.15
		c7.64,0,13.29,6.42,13.29,13.75c0,8.71-7.18,16.05-15.59,16.05c-8.25,0-16.05-6.27-16.05-16.35c0-11.31,11.46-22.16,36.37-22.16
		c21.09,0,35.61,8.25,35.61,24.6v61.74c0,31.94,12.38,43.55,29.34,43.55c7.33,0,14.36-4.28,14.36-7.18c0-0.92-0.76-0.76-2.14-0.76
		c-8.56,0-15.59-6.11-15.59-14.37c0-9.32,7.49-15.74,16.05-15.74c8.86,0,15.74,7.49,15.74,15.74
		C-1523.79,211.74-1536.48,223.96-1556.96,223.96z M-1612.43,124.94c-0.31,0-2.45,2.75-5.65,5.2c-2.75,2.14-9.93,4.89-9.93,25.37
		c0,17.42,0.61,18.95,4.43,18.95c4.74,0,11.61-12.23,11.61-22.46v-26.13c0,0,0,0,0-0.15
		C-1611.97,125.24-1611.97,124.94-1612.43,124.94z"/>
	<path d="M-1517.68,176.59h-53.79v-1.99h4.58c4.43,0,7.33-3.06,7.33-7.18V63.2c0-4.13-2.14-6.72-6.27-6.72h-4.13v-1.99h42.33v112.93
		c0,4.13,1.83,7.18,5.5,7.18h4.43V176.59z"/>
	<path d="M-1467.86,178.88c-22.16,0-45.23-13.45-45.23-42.02c0-27.2,21.24-45.39,43.25-45.39c23.69,0,36.98,20.78,36.98,37.59v4.89
		h-47.83c-0.15,1.38-0.15,2.75-0.15,4.13c0,31.79,5.96,38.36,17.88,38.36c7.64,0,16.35-3.52,16.35-7.49c0-0.61-0.31-0.76-0.92-0.76
		c-0.46,0-1.07,0-1.53,0c-8.25,0-15.89-6.42-15.89-14.98c0-8.41,7.03-15.13,16.05-15.13s16.2,6.27,16.2,15.13
		C-1432.72,166.2-1445.4,178.88-1467.86,178.88z M-1463.28,131.66v-4.43c0-22.77-0.46-33.77-7.33-33.77
		c-6.72,0-9.63,14.06-10.09,38.2H-1463.28z"/>
	<path d="M-1205.94,56.32h-2.75c-7.18,0-16.96,5.5-16.96,22.31v98.11h-28.88l-55.78-104.37c0,0,0,73.96-0.15,75.34
		c0,17.12,6.72,27.05,18.19,27.05h4.28v1.99h-42.79v-1.99h4.89c5.96,0,13.45-10.09,13.45-28.12V68.7c0-8.4-2.14-12.84-19.41-12.84
		c-25.98,0-44.01,14.21-44.01,35.76c0,18.95,11.46,27.81,23.38,27.81c7.03,0,11.16-2.45,11.16-4.28c0-1.07-1.38-0.76-2.75-0.76
		c-10.85,0-16.2-7.49-16.2-14.98c0-7.64,5.65-15.28,17.42-15.28c8.4,0,16.81,5.81,16.81,15.89c0,10.24-9.63,21.39-25.37,21.39
		c-21.09,0-33.47-15.28-33.47-31.48c0-18.03,13.45-36.52,44.62-36.52c12.07,0,17.12,1.07,25.67,1.07h41.41l45.39,86.34V78.48
		c0-13.75-8.1-22.16-15.74-22.16h-6.88v-1.83h44.47V56.32z"/>
	<path d="M-1107.21,223.96c-35.91,0-54.86-19.41-54.86-52.72v-9.02c0,0-1.38,4.13-4.13,8.1c-2.75,4.13-6.27,8.1-17.27,8.1
		c-16.05,0-26.59-8.86-26.59-21.85c0-20.17,20.78-21.09,29.19-23.23c8.4-2.14,19.25-4.43,19.25-23.53
		c0-13.75-4.43-16.35-11.46-16.35s-14.67,3.97-14.67,6.27c0,0.76,0.31,0.92,0.61,0.92c0.46,0,1.07-0.15,1.68-0.15
		c7.64,0,13.29,6.42,13.29,13.75c0,8.71-7.18,16.05-15.59,16.05c-8.25,0-16.05-6.27-16.05-16.35c0-11.31,11.46-22.16,36.37-22.16
		c21.09,0,35.61,8.25,35.61,24.6v61.74c0,31.94,12.38,43.55,29.34,43.55c7.33,0,14.36-4.28,14.36-7.18c0-0.92-0.76-0.76-2.14-0.76
		c-8.56,0-15.59-6.11-15.59-14.37c0-9.32,7.49-15.74,16.05-15.74c8.86,0,15.74,7.49,15.74,15.74
		C-1074.05,211.74-1086.74,223.96-1107.21,223.96z M-1162.69,124.94c-0.31,0-2.45,2.75-5.65,5.2c-2.75,2.14-9.93,4.89-9.93,25.37
		c0,17.42,0.61,18.95,4.43,18.95c4.74,0,11.61-12.23,11.61-22.46v-26.13c0,0,0,0,0-0.15
		C-1162.23,125.24-1162.23,124.94-1162.69,124.94z"/>
	<path d="M-1068.4,148.93c0,22.77-9.02,30.26-23.38,30.26c-13.14,0-23.38-5.35-23.38-17.57V96.06h-8.4v-2.29h5.2
		c15.43,0,33.77-13.29,33.77-30.1l1.99,0.15v29.95h14.06v2.29h-14.06v69.23c0,5.81,1.68,6.57,3.82,6.57c4.13,0,8.56-7.95,8.56-22.92
		H-1068.4z"/>
	<path d="M-1052.81,105.23v-1.68c14.52,0,23.84-10.24,23.84-19.87c0-1.07,0-1.68-0.61-1.68c-1.07,0-4.43,3.67-12.07,3.67
		c-8.86,0-17.73-7.18-17.73-16.2c0-9.63,8.4-16.2,17.42-16.2c11,0,19.1,7.95,19.1,19.41
		C-1022.86,91.32-1034.62,105.23-1052.81,105.23z"/>
	<path d="M-964.02,176.59h-53.79v-1.99h4.58c4.43,0,7.33-3.06,7.33-7.18V63.2c0-4.13-2.14-6.72-6.27-6.72h-4.13v-1.99h42.33v112.93
		c0,4.13,1.83,7.18,5.5,7.18h4.43V176.59z"/>
	<path d="M-799.29,124.48c-4.74,0-8.25-0.76-11-1.83v41.41c0,7.18,3.67,10.54,12.53,10.54h6.26v1.99h-69.99v-1.99h5.35
		c7.03,0,10.24-4.13,10.24-11.16V68.4c0-8.4-1.99-12.68-19.25-12.68c-25.98,0-44.01,14.21-44.01,35.76
		c0,18.95,11.46,27.81,23.38,27.81c7.03,0,11.16-2.45,11.16-4.28c0-1.07-1.38-0.76-2.75-0.76c-10.85,0-16.2-7.49-16.2-14.98
		c0-7.64,5.65-15.28,17.42-15.28c8.4,0,16.81,5.81,16.81,15.89c0,10.24-9.63,21.39-25.37,21.39c-21.09,0-33.47-15.28-33.47-31.48
		c0-18.03,13.45-36.52,44.62-36.52c12.07,0,17.12,1.07,25.67,1.07h54.4c25.52,0,40.96,17.12,40.96,33.77
		C-752.53,109.96-770.25,124.48-799.29,124.48z M-802.04,56.17h-8.25v64.18c1.83,1.22,4.58,2.14,8.4,2.14
		c9.78,0,13.91-3.21,13.91-33.01C-787.98,56.94-794.7,56.17-802.04,56.17z"/>
	<path d="M-648.76,223.96c-35.91,0-54.86-19.41-54.86-52.72v-9.02c0,0-1.38,4.13-4.13,8.1c-2.75,4.13-6.27,8.1-17.27,8.1
		c-16.05,0-26.59-8.86-26.59-21.85c0-20.17,20.78-21.09,29.19-23.23c8.4-2.14,19.25-4.43,19.25-23.53
		c0-13.75-4.43-16.35-11.46-16.35c-7.03,0-14.67,3.97-14.67,6.27c0,0.76,0.31,0.92,0.61,0.92c0.46,0,1.07-0.15,1.68-0.15
		c7.64,0,13.29,6.42,13.29,13.75c0,8.71-7.18,16.05-15.59,16.05c-8.25,0-16.05-6.27-16.05-16.35c0-11.31,11.46-22.16,36.37-22.16
		c21.09,0,35.61,8.25,35.61,24.6v61.74c0,31.94,12.38,43.55,29.34,43.55c7.34,0,14.37-4.28,14.37-7.18c0-0.92-0.76-0.76-2.14-0.76
		c-8.56,0-15.59-6.11-15.59-14.37c0-9.32,7.49-15.74,16.05-15.74c8.86,0,15.74,7.49,15.74,15.74
		C-615.6,211.74-628.28,223.96-648.76,223.96z M-704.23,124.94c-0.31,0-2.44,2.75-5.65,5.2c-2.75,2.14-9.93,4.89-9.93,25.37
		c0,17.42,0.61,18.95,4.43,18.95c4.74,0,11.61-12.23,11.61-22.46v-26.13c0,0,0,0,0-0.15C-703.78,125.24-703.78,124.94-704.23,124.94
		z"/>
	<path d="M-600.16,126.01c-7.03,0-14.82-5.81-14.82-14.21c0-9.17,6.72-15.28,14.21-15.28c5.5,0,7.95,2.29,8.86,2.29
		c0.31,0,0.76-0.31,0.76-0.76c0-2.44-4.43-6.27-10.85-6.27c-6.57,0-16.66,5.04-16.66,22.16v53.94c0,4.89,1.99,6.88,4.43,6.88h5.81
		v1.83h-54.86v-1.83h5.2c4.43,0,7.79-2.45,7.79-6.57v-65.25c0-4.13-2.14-7.03-5.65-7.03h-5.2v-1.99h40.8l0.76,9.47
		c1.83-3.97,6.88-13.29,18.03-13.29c9.17,0,16.96,7.64,16.96,18.64S-592.22,126.01-600.16,126.01z"/>
	<path d="M-572.04,63.2c0-4.13-2.14-6.72-6.42-6.72h-3.97v-1.99h41.26v75.8c13.91-20.32,18.8-27.35,18.8-27.35
		c5.65-8.25,12.53-12.53,20.48-12.53c9.78,0,16.05,6.42,16.05,14.98c0,8.4-7.03,15.13-15.59,15.13c-7.79,0-15.43-4.74-15.43-13.29
		c0-1.99-0.46-2.44-1.07-2.44c-2.6,0-7.64,5.5-7.64,8.1l36.06,55.62c2.9,4.28,6.11,5.96,9.63,5.96h3.06v2.14h-43.55l-20.78-33.31
		v24.15c0,4.13,1.83,7.18,5.5,7.18h2.45v1.99h-49.21v-1.99h2.9c4.43,0,7.49-3.06,7.49-7.18V63.2z"/>
</g>
<g>
	<path d="M170.17-1000.34H98.8v-1.99h6.42c3.82,0,11.61-2.75,11.61-11.16v-95.05c-0.15-8.4-2.29-12.53-19.56-12.53
		c-25.98,0-43.86,14.21-43.86,35.76c0,18.95,11.31,27.81,23.23,27.81c7.03,0,11.16-2.45,11.16-4.28c0-1.07-1.22-0.76-2.75-0.76
		c-10.85,0-16.2-7.49-16.2-14.98c0-7.64,5.65-15.28,17.42-15.28c8.4,0,16.81,5.81,16.81,15.89c0,10.24-9.63,21.39-25.37,21.39
		c-21.09,0-33.47-15.28-33.47-31.48c0-18.03,13.45-36.52,44.62-36.52c12.07,0,17.12,0.92,25.83,0.92h55.47v1.83h-6.42
		c-5.96,0-11,5.2-11,12.23v95.21c0,8.25,5.65,11,9.93,11h7.49V-1000.34z"/>
	<path d="M220.6-996.83c-13.45,0-22.77-7.18-30.41-7.18c-6.57,0-8.25,3.36-8.71,4.58h-1.38v-38.51h1.22
		c1.99,10.09,16.66,39.27,37.44,39.27c7.95,0,11.92-4.89,11.92-11.61c0-22.46-50.12-9.63-50.12-46.61
		c0-20.78,19.87-29.19,38.2-29.19c18.95,0,29.95,6.88,29.95,15.89c0,6.57-5.65,11.77-13.3,11.77c-6.88,0-13.6-4.74-13.6-11.16
		c0-3.67,1.68-5.96,3.21-7.33c1.38-1.38,2.75-2.14,2.75-3.52c0-1.99-4.13-3.97-9.32-3.97c-7.34,0-13.75,4.13-13.75,10.7
		c0,23.23,49.36,9.32,49.36,46.15C254.06-1009.21,239.7-996.83,220.6-996.83z"/>
	<path d="M327.11-952.97c-35.91,0-54.86-19.41-54.86-52.72v-108.04c0-4.13-2.14-6.72-6.42-6.72h-3.97v-1.99h42.02v123.32
		c0,31.94,11,43.86,27.97,43.86c7.34,0,14.36-4.28,14.36-7.18c0-0.92-0.76-0.76-2.14-0.76c-8.56,0-15.59-6.11-15.59-14.37
		c0-9.32,7.64-15.74,16.05-15.74c8.86,0,15.74,7.49,15.74,15.74C360.27-965.2,347.59-952.97,327.11-952.97z"/>
	<path d="M363.94-998.05c-22.16,0-45.23-13.45-45.23-42.02c0-27.2,21.24-45.39,43.25-45.39c23.69,0,36.98,20.78,36.98,37.59v4.89
		H351.1c-0.15,1.38-0.15,2.75-0.15,4.13c0,31.79,5.96,38.36,17.88,38.36c7.64,0,16.35-3.52,16.35-7.49c0-0.61-0.31-0.76-0.92-0.76
		c-0.46,0-1.07,0-1.53,0c-8.25,0-15.89-6.42-15.89-14.98c0-8.41,7.03-15.13,16.05-15.13s16.2,6.27,16.2,15.13
		C399.09-1010.74,386.4-998.05,363.94-998.05z M368.52-1045.27v-4.43c0-22.77-0.46-33.77-7.33-33.77c-6.72,0-9.63,14.06-10.09,38.2
		H368.52z"/>
	<path d="M629.99-1037.94c0,28.27-2.9,39.43-25.83,39.43c-18.64,0-26.74-12.23-26.74-25.06c0-7.18,0.61-12.84,0.61-23.23
		c0-11.46-3.36-16.2-12.84-16.2h-11v52.42c0,6.11,2.44,8.4,6.72,8.4h7.18v1.83h-63.11v-1.83h6.42c5.65,0,8.25-3.06,8.25-8.71v-97.5
		c0-8.4-1.83-12.68-19.1-12.68c-25.98,0-44.01,14.21-44.01,35.76c0,18.95,11.46,27.81,23.38,27.81c7.03,0,11.16-2.45,11.16-4.28
		c0-1.07-1.38-0.76-2.75-0.76c-10.85,0-16.2-7.49-16.2-14.98c0-7.64,5.65-15.28,17.42-15.28c8.4,0,16.81,5.81,16.81,15.89
		c0,10.24-9.63,21.39-25.37,21.39c-21.09,0-33.47-15.28-33.47-31.48c0-18.03,13.45-36.52,44.62-36.52c12.07,0,17.12,0.92,25.67,0.92
		h46c38.97,0,52.72,12.68,52.72,29.49c0,17.12-18.64,25.37-31.63,28.88v0.61c9.93,2.29,30.72,7.49,30.72,27.05v22.01
		c0,5.2,1.53,7.79,4.74,7.79c6.11,0,7.95-14.37,7.95-31.17H629.99z M564.59-1120.61H554.2v55.62h10.7c12.53,0,16.2-3.82,16.2-27.51
		C581.09-1117.86,574.83-1120.61,564.59-1120.61z"/>
	<path d="M681.04-997.44c-25.21,0-45.69-19.87-45.69-44.32c0-24.3,20.48-44.16,45.69-44.16s45.69,19.87,45.69,44.16
		C726.73-1017.31,706.25-997.44,681.04-997.44z M681.19-1083.63c-9.17,0-10.85,7.64-10.85,42.48c0,36.52,2.6,41.41,10.85,41.41
		c8.56,0,10.85-7.03,10.85-40.96C692.04-1070.03,692.5-1083.63,681.19-1083.63z"/>
	<path d="M871.6-1094.33c-9.32,0-15.89-6.72-15.89-14.98c0-9.47,7.33-15.74,15.74-15.74c5.5,0,7.49,2.14,8.71,2.14
		c0.46,0,0.92-0.46,0.92-1.83c0-5.35-6.57-11.46-16.81-11.46c-29.8,0-46.61,32.55-57.31,65.71l-26.59,83.13
		c-4.28,13.29-12.68,19.87-25.21,19.87c-11.16,0-18.95-8.71-18.95-18.34c0-9.47,7.49-16.05,15.74-16.05
		c9.02,0,15.13,7.33,15.13,14.67c0,7.95-5.96,14.36-14.21,14.36c-2.9,0-5.65-1.07-6.88-1.07c-0.31,0-0.46,0-0.46,0.31
		c0,2.29,4.89,4.28,10.09,4.28c7.64,0,17.57-3.51,22.31-17.42l4.58-13.6h-12.38l-33.62-73.2c-2.45-5.2-5.5-7.49-8.4-7.49h-3.52
		v-1.99h55.32v1.99h-3.82c-2.29,0-3.97,1.22-3.97,3.52c0,0.76,0.15,1.83,0.61,2.9l18.19,45.85l11.46-44.93
		c9.63-37.9,25.52-65.86,56.7-65.86c20.94,0,30.72,13.91,30.72,26.44C889.78-1103.19,883.52-1094.33,871.6-1094.33z"/>
	<path d="M902.17-1022.35c0,14.98-3.06,24.3-19.25,24.3c-19.71,0-22.77-16.66-23.23-16.66c-0.61,0-1.53,4.13-4.28,8.1
		c-2.75,4.13-6.27,8.1-17.27,8.1c-16.05,0-26.59-8.86-26.59-21.85c0-20.17,20.78-21.09,29.19-23.23c8.4-2.14,19.25-4.43,19.25-23.53
		c0-13.75-4.43-16.35-11.46-16.35s-14.67,3.97-14.67,6.27c0,0.76,0.31,0.92,0.61,0.92c0.46,0,1.07-0.15,1.68-0.15
		c7.64,0,13.29,6.42,13.29,13.75c0,8.71-7.18,16.05-15.59,16.05c-8.25,0-16.05-6.27-16.05-16.35c0-11.31,11.46-22.16,36.37-22.16
		c21.09,0,35.61,8.25,35.61,24.6v52.42c0,3.97,1.38,5.5,3.21,5.5c3.21,0,7.18-7.03,7.18-17.57c0-0.76,0-1.38,0-2.14H902.17z
		 M858.92-1052c-0.31,0-2.45,2.75-5.65,5.2c-2.75,2.14-9.93,4.89-9.93,25.37c0,17.42,0.61,18.95,4.43,18.95
		c4.74,0,11.61-12.23,11.61-22.46v-26.13c0,0,0,0,0-0.15C859.38-1051.69,859.38-1052,858.92-1052z"/>
	<path d="M971.7-952.97c-35.91,0-54.86-19.41-54.86-52.72v-108.04c0-4.13-2.14-6.72-6.42-6.72h-3.97v-1.99h42.02v123.32
		c0,31.94,11,43.86,27.96,43.86c7.34,0,14.37-4.28,14.37-7.18c0-0.92-0.76-0.76-2.14-0.76c-8.56,0-15.59-6.11-15.59-14.37
		c0-9.32,7.64-15.74,16.04-15.74c8.86,0,15.74,7.49,15.74,15.74C1004.86-965.2,992.17-952.97,971.7-952.97z"/>
	<path d="M1008.52-998.05c-22.16,0-45.23-13.45-45.23-42.02c0-27.2,21.24-45.39,43.25-45.39c23.69,0,36.98,20.78,36.98,37.59v4.89
		h-47.83c-0.15,1.38-0.15,2.75-0.15,4.13c0,31.79,5.96,38.36,17.88,38.36c7.64,0,16.35-3.52,16.35-7.49c0-0.61-0.31-0.76-0.92-0.76
		c-0.46,0-1.07,0-1.53,0c-8.25,0-15.89-6.42-15.89-14.98c0-8.41,7.03-15.13,16.05-15.13c9.02,0,16.2,6.27,16.2,15.13
		C1043.67-1010.74,1030.99-998.05,1008.52-998.05z M1013.11-1045.27v-4.43c0-22.77-0.46-33.77-7.33-33.77
		c-6.72,0-9.63,14.06-10.09,38.2H1013.11z"/>
	<path d="M1270.45-1120.61h-2.75c-7.18,0-16.96,5.5-16.96,22.31v98.11h-28.88l-55.78-104.37c0,0,0,73.96-0.15,75.34
		c0,17.12,6.72,27.05,18.19,27.05h4.28v1.99h-42.79v-1.99h4.89c5.96,0,13.45-10.09,13.45-28.12v-77.94c0-8.4-2.14-12.84-19.41-12.84
		c-25.98,0-44.01,14.21-44.01,35.76c0,18.95,11.46,27.81,23.38,27.81c7.03,0,11.16-2.45,11.16-4.28c0-1.07-1.38-0.76-2.75-0.76
		c-10.85,0-16.2-7.49-16.2-14.98c0-7.64,5.65-15.28,17.42-15.28c8.41,0,16.81,5.81,16.81,15.89c0,10.24-9.63,21.39-25.37,21.39
		c-21.09,0-33.47-15.28-33.47-31.48c0-18.03,13.45-36.52,44.62-36.52c12.07,0,17.12,1.07,25.67,1.07h41.41l45.39,86.34v-62.35
		c0-13.75-8.1-22.16-15.74-22.16h-6.88v-1.83h44.47V-1120.61z"/>
	<path d="M1356.95-1022.35c0,14.98-3.06,24.3-19.25,24.3c-19.71,0-22.77-16.66-23.23-16.66c-0.61,0-1.53,4.13-4.28,8.1
		c-2.75,4.13-6.27,8.1-17.27,8.1c-16.05,0-26.59-8.86-26.59-21.85c0-20.17,20.78-21.09,29.19-23.23c8.4-2.14,19.25-4.43,19.25-23.53
		c0-13.75-4.43-16.35-11.46-16.35c-7.03,0-14.67,3.97-14.67,6.27c0,0.76,0.31,0.92,0.61,0.92c0.46,0,1.07-0.15,1.68-0.15
		c7.64,0,13.29,6.42,13.29,13.75c0,8.71-7.18,16.05-15.59,16.05c-8.25,0-16.05-6.27-16.05-16.35c0-11.31,11.46-22.16,36.37-22.16
		c21.09,0,35.61,8.25,35.61,24.6v52.42c0,3.97,1.38,5.5,3.21,5.5c3.21,0,7.18-7.03,7.18-17.57c0-0.76,0-1.38,0-2.14H1356.95z
		 M1313.7-1052c-0.31,0-2.45,2.75-5.65,5.2c-2.75,2.14-9.93,4.89-9.93,25.37c0,17.42,0.61,18.95,4.43,18.95
		c4.74,0,11.61-12.23,11.61-22.46v-26.13c0,0,0,0,0-0.15C1314.16-1051.69,1314.16-1052,1313.7-1052z"/>
	<path d="M1422.35-952.97c-35.76,0-55.01-19.41-55.01-52.72v-75.19h-8.4v-2.29h5.2c15.43,0,33.77-13.29,33.77-29.95h1.99v29.95
		h14.06v2.29h-14.06v82.06c0,31.94,10.24,43.55,27.2,43.55c7.33,0,14.36-4.28,14.36-7.18c0-0.92-0.76-0.76-2.14-0.76
		c-8.56,0-15.59-6.11-15.59-14.37c0-9.32,7.64-15.74,16.05-15.74c9.02,0,15.74,7.49,15.74,15.74
		C1455.51-965.2,1442.83-952.97,1422.35-952.97z"/>
	<path d="M1427.7-1071.71v-1.68c14.52,0,23.84-10.24,23.84-19.87c0-1.07,0-1.68-0.61-1.68c-1.07,0-4.43,3.67-12.07,3.67
		c-8.86,0-17.73-7.18-17.73-16.2c0-9.63,8.4-16.2,17.42-16.2c11,0,19.1,7.95,19.1,19.41
		C1457.65-1085.62,1445.89-1071.71,1427.7-1071.71z"/>
	<path d="M1528.41-952.97c-35.91,0-54.86-19.41-54.86-52.72v-108.04c0-4.13-2.14-6.72-6.42-6.72h-3.97v-1.99h42.03v123.32
		c0,31.94,11,43.86,27.96,43.86c7.34,0,14.37-4.28,14.37-7.18c0-0.92-0.76-0.76-2.14-0.76c-8.56,0-15.59-6.11-15.59-14.37
		c0-9.32,7.64-15.74,16.04-15.74c8.86,0,15.74,7.49,15.74,15.74C1561.57-965.2,1548.89-952.97,1528.41-952.97z"/>
	<path d="M1680.15-1052.45c-4.74,0-8.25-0.76-11-1.83v41.41c0,7.18,3.67,10.54,12.53,10.54h6.27v1.99h-69.99v-1.99h5.35
		c7.03,0,10.24-4.13,10.24-11.16v-95.05c0-8.4-1.99-12.68-19.25-12.68c-25.98,0-44.01,14.21-44.01,35.76
		c0,18.95,11.46,27.81,23.38,27.81c7.03,0,11.16-2.45,11.16-4.28c0-1.07-1.38-0.76-2.75-0.76c-10.85,0-16.2-7.49-16.2-14.98
		c0-7.64,5.65-15.28,17.42-15.28c8.4,0,16.81,5.81,16.81,15.89c0,10.24-9.63,21.39-25.37,21.39c-21.09,0-33.47-15.28-33.47-31.48
		c0-18.03,13.45-36.52,44.62-36.52c12.07,0,17.12,1.07,25.67,1.07h54.4c25.52,0,40.95,17.12,40.95,33.77
		C1726.92-1066.97,1709.19-1052.45,1680.15-1052.45z M1677.4-1120.76h-8.25v64.18c1.83,1.22,4.58,2.14,8.4,2.14
		c9.78,0,13.91-3.21,13.91-33.01C1691.46-1120,1684.74-1120.76,1677.4-1120.76z"/>
	<path d="M1830.68-952.97c-35.91,0-54.86-19.41-54.86-52.72v-9.02c0,0-1.38,4.13-4.13,8.1c-2.75,4.13-6.27,8.1-17.27,8.1
		c-16.05,0-26.59-8.86-26.59-21.85c0-20.17,20.78-21.09,29.19-23.23c8.4-2.14,19.25-4.43,19.25-23.53
		c0-13.75-4.43-16.35-11.46-16.35c-7.03,0-14.67,3.97-14.67,6.27c0,0.76,0.31,0.92,0.61,0.92c0.46,0,1.07-0.15,1.68-0.15
		c7.64,0,13.29,6.42,13.29,13.75c0,8.71-7.18,16.05-15.59,16.05c-8.25,0-16.05-6.27-16.05-16.35c0-11.31,11.46-22.16,36.37-22.16
		c21.09,0,35.61,8.25,35.61,24.6v61.74c0,31.94,12.38,43.55,29.34,43.55c7.34,0,14.37-4.28,14.37-7.18c0-0.92-0.76-0.76-2.14-0.76
		c-8.56,0-15.59-6.11-15.59-14.37c0-9.32,7.49-15.74,16.04-15.74c8.86,0,15.74,7.49,15.74,15.74
		C1863.84-965.2,1851.16-952.97,1830.68-952.97z M1775.21-1052c-0.31,0-2.44,2.75-5.65,5.2c-2.75,2.14-9.93,4.89-9.93,25.37
		c0,17.42,0.61,18.95,4.43,18.95c4.74,0,11.61-12.23,11.61-22.46v-26.13c0,0,0,0,0-0.15C1775.67-1051.69,1775.67-1052,1775.21-1052z
		"/>
	<path d="M1879.28-1050.93c-7.03,0-14.82-5.81-14.82-14.21c0-9.17,6.72-15.28,14.21-15.28c5.5,0,7.95,2.29,8.86,2.29
		c0.31,0,0.76-0.31,0.76-0.76c0-2.44-4.43-6.27-10.85-6.27c-6.57,0-16.66,5.04-16.66,22.16v53.94c0,4.89,1.99,6.88,4.43,6.88h5.81
		v1.83h-54.86v-1.83h5.2c4.43,0,7.79-2.45,7.79-6.57V-1074c0-4.13-2.14-7.03-5.65-7.03h-5.2v-1.99h40.8l0.76,9.47
		c1.83-3.97,6.88-13.29,18.03-13.29c9.17,0,16.96,7.64,16.96,18.64S1887.22-1050.93,1879.28-1050.93z"/>
	<path d="M1907.4-1113.73c0-4.13-2.14-6.72-6.42-6.72h-3.97v-1.99h41.26v75.8c13.91-20.32,18.8-27.35,18.8-27.35
		c5.65-8.25,12.53-12.53,20.48-12.53c9.78,0,16.05,6.42,16.05,14.98c0,8.4-7.03,15.13-15.59,15.13c-7.79,0-15.43-4.74-15.43-13.29
		c0-1.99-0.46-2.44-1.07-2.44c-2.6,0-7.64,5.5-7.64,8.1l36.06,55.62c2.9,4.28,6.11,5.96,9.63,5.96h3.06v2.14h-43.55l-20.78-33.31
		v24.14c0,4.13,1.83,7.18,5.5,7.18h2.45v1.99h-49.21v-1.99h2.9c4.43,0,7.49-3.06,7.49-7.18V-1113.73z"/>
</g>
<g>
	<defs>
		<rect id="SVGID_1_" x="87.89" y="-79.56" width="1967.11" height="212.08"/>
	</defs>
	<clipPath id="SVGID_2_">
		<use xlink:href="#SVGID_1_"  style="overflow:visible;"/>
	</clipPath>
	<g class="st0">
		<defs>
			<path id="SVGID_3_" d="M154.27,54.47h26.09l-0.14,0.92l5.37,6.79l-23.76,111.87h-25.17l-5.37-6.79h-0.92L154.27,54.47z
				 M134.75,163.65h18.81l22.49-105.5h-18.88L134.75,163.65z M260.01,126.88h7.64l-0.14,0.92l5.37,6.79l-5.37,25.17h-14.5
				l-3.04,14.28h-68.59l-5.37-6.79h-0.92l5.52-25.88h18.24l-2.26-2.9h-0.92l1.63-7.64h-6.79l-5.37-6.79h-0.85l5.59-26.09h14.5
				l3.04-14.5h69.51l-0.14,0.85l5.37,6.86l-5.37,25.17h-18.24l2.9,3.75L260.01,126.88z M244.81,149.37h14.43l4.1-18.81h-14.5
				l3.04-14.5h-43.42l2.12-10.11h57.91l3.96-18.88h-62.3l-3.04,14.5h-14.5l-3.89,18.81h14.5l-3.18,14.5h43.42l-2.19,10.11h-57.91
				l-3.89,18.67h62.3L244.81,149.37z M301.69,54.47h26.09l-0.14,0.92l5.37,6.79l-23.76,111.87h-25.17l-5.37-6.79h-0.92L301.69,54.47
				z M282.18,163.65h18.81l22.49-105.5h-18.88L282.18,163.65z M338.63,159.77h-6.79l-5.37-6.79h-0.85l11.67-55.01h14.5l3.04-14.5
				h55.01l-0.14,0.85l5.37,6.86l-1.41,6.79h7.64l-0.28,0.85l5.37,6.79l-5.37,25.24h-14.5l-2.12,10.54h7.64l-0.28,0.92l5.37,6.79
				l-5.23,24.96h-68.66l-5.3-6.79h-0.92L338.63,159.77z M341.39,163.65h62.23l3.96-18.67h-57.98l2.19-10.11h43.49l3.18-14.5h14.43
				l3.96-18.81h-14.5l3.04-14.5h-47.8l-3.04,14.5h-14.5l-10.11,47.8h14.5L341.39,163.65z M397.11,105.95l-2.19,10.11h-39.03
				l2.12-10.11H397.11z M572.97,159.77h-6.79l-5.37-6.79h-0.85l1.56-7.64h-6.79l-2.9-3.82l-6.93,32.53h-25.17l-5.37-6.79h-0.92
				l23.9-112.79h69.51l-0.14,0.92l5.37,6.79l-1.41,6.79h7.64l-0.14,0.92l5.37,6.79l-8.41,39.67h-14.5l-3.18,14.5h-3.75l3.04,3.75
				l-1.41,6.79h7.64l-0.28,0.92l5.37,6.79l-5.23,24.96h-25.17l-5.37-6.79h-0.85L572.97,159.77z M575.72,163.65h18.81l3.96-18.67H584
				l3.18-14.42h-14.5l2.19-10.18h14.5l3.04-14.43h14.43l7.14-33.38h-14.5l3.04-14.43h-62.3l-22.42,105.5h18.81l9.26-43.28h10.18
				l-3.18,14.5h14.43l-3.04,14.5h14.5L575.72,163.65z M594.11,76.96l-5.16,24.61h-39.1L555,76.96H594.11z M561.09,97.96h25.1
				l2.12-10.61h-25.03L561.09,97.96z M707.28,97.96h7.64l-0.28,0.85l5.37,6.79l-11.46,54.17h-14.5l-3.04,14.28h-54.17l-5.3-6.79
				h-0.92l1.63-7.5h-6.79l-5.37-6.79h-0.85l11.67-55.01h14.5l3.04-14.5h55.01l-0.14,0.85l5.37,6.86L707.28,97.96z M685.85,149.37
				h14.43l10.18-47.8h-14.5l3.04-14.5h-47.8l-3.04,14.5h-14.5l-10.11,47.8h14.5l-3.04,14.28h47.8L685.85,149.37z M690.73,105.95
				l-8.41,39.03h-39.1l8.41-39.03H690.73z M654.53,141.38h25.1l5.3-25.03H659.9L654.53,141.38z M732.63,170.16h3.75l-2.12-2.9h-0.92
				l1.63-7.5h-6.79l-5.37-6.79h-0.85l14.71-69.51h26.09l-0.14,0.85l5.37,6.86l-10.75,50.21h25.1l12.3-57.91h26.02l-0.14,0.85
				l5.37,6.86l-23.9,111.87h-68.66l-5.3-6.86h-0.92L732.63,170.16z M731.64,192.58h62.23l22.35-105.5H797.4l-12.37,57.91h-39.1
				l12.37-57.91h-18.88l-13.15,62.3h14.5l-3.04,14.28h43.42l-2.19,10.11h-43.42L731.64,192.58z M912.69,97.96h7.64l-0.28,0.85
				l5.37,6.79l-11.46,54.17h-14.5l-3.04,14.28h-54.17l-5.3-6.79h-0.92l1.63-7.5h-6.79l-5.37-6.79h-0.85l5.44-26.09h14.5l2.33-10.54
				h-6.79l-5.37-6.79h-0.85l5.44-26.09h69.51l-0.14,0.85l5.37,6.86L912.69,97.96z M891.26,149.37h14.43l10.18-47.8h-14.5l3.04-14.5
				h-62.3l-3.89,18.88h57.91l-2.19,10.11h-43.42l-3.04,14.5H833l-4.03,18.81h14.5l-3.04,14.28h47.8L891.26,149.37z M889.92,134.88
				l-2.19,10.11h-39.1l2.19-10.11H889.92z M948.15,54.47h26.09l-0.14,0.92l5.37,6.79l-23.76,111.87h-25.17l-5.37-6.79h-0.92
				L948.15,54.47z M928.63,163.65h18.81l22.49-105.5h-18.88L928.63,163.65z M985.09,159.77h-6.79l-5.37-6.79h-0.85l11.67-55.01h14.5
				l3.04-14.5h55.01l-0.14,0.85l5.37,6.86l-1.41,6.79h7.64l-0.28,0.85l5.37,6.79l-5.37,25.24h-14.5l-2.12,10.54h7.64l-0.28,0.92
				l5.37,6.79l-5.23,24.96h-68.66l-5.3-6.79h-0.92L985.09,159.77z M987.85,163.65h62.23l3.96-18.67h-57.98l2.19-10.11h43.49
				l3.18-14.5h14.43l3.96-18.81h-14.5l3.04-14.5h-47.8l-3.04,14.5h-14.5l-10.11,47.8h14.5L987.85,163.65z M1043.57,105.95
				l-2.19,10.11h-39.03l2.12-10.11H1043.57z M1225.5,130.84h-6.79l-5.38-6.79h-0.85l1.7-7.71h-6.79l-3.04-3.75l-13.01,61.45h-25.17
				l-5.37-6.79h-0.92l23.9-112.79h26.09l-0.14,0.92l5.38,6.79l-1.49,6.79h7.71l-0.14,0.92l5.37,6.79l-1.49,6.79h7.71l-0.14,0.85
				l2.12,2.9l7-32.74h26.02l-0.14,0.92l5.37,6.79l-23.76,111.87h-25.17l-5.37-6.79h-0.85L1225.5,130.84z M1222.18,163.65h18.81
				l22.49-105.5h-18.81l-9.26,43.42h-10.18l3.04-14.5h-14.5l3.18-14.5h-14.42l3.04-14.43h-18.88l-22.42,105.5h18.81l15.34-72.2
				h10.18l-3.04,14.5h14.43l-3.04,14.43h14.5L1222.18,163.65z M1353.74,97.96h7.64l-0.28,0.85l5.37,6.79l-11.46,54.17h-14.5
				l-3.04,14.28h-54.17l-5.3-6.79h-0.92l1.63-7.5h-6.79l-5.37-6.79h-0.85l5.44-26.09h14.5l2.33-10.54h-6.79l-5.37-6.79h-0.85
				l5.45-26.09h69.51l-0.14,0.85l5.37,6.86L1353.74,97.96z M1332.31,149.37h14.42l10.18-47.8h-14.5l3.04-14.5h-62.3l-3.89,18.88
				h57.91l-2.19,10.11h-43.42l-3.04,14.5h-14.5l-4.03,18.81h14.5l-3.04,14.28h47.8L1332.31,149.37z M1330.97,134.88l-2.19,10.11
				h-39.1l2.19-10.11H1330.97z M1430.49,83.47h7.71l-0.14,0.85l5.3,6.86l-5.3,25.17h-14.5l-12.3,57.7h-25.24l-5.3-6.79h-0.92
				l10.89-50.91h-6.79l-5.37-6.79h-0.85l5.44-26.09h14.5l6.08-28.99h26.09l-0.14,0.92l5.37,6.79L1430.49,83.47z M1415.29,105.95
				h14.5l3.89-18.88h-14.5l6.22-28.92h-18.81l-6.22,28.92h-14.5l-3.89,18.88h14.5l-12.3,57.7h18.81L1415.29,105.95z M1463.4,86.93
				l-5.09-6.36h-0.85l5.45-26.09H1489l-0.14,0.92l5.37,6.79l-7,32.46h-17.89l-5.37-6.79h-0.92L1463.4,86.93z M1467.57,84.17h11.6
				l5.52-26.02h-18.88l-4.03,18.81h7.21L1467.57,84.17z M1507.63,54.47h26.09l-0.14,0.92l5.37,6.79l-23.76,111.87h-25.17l-5.38-6.79
				h-0.92L1507.63,54.47z M1488.11,163.65h18.81l22.49-105.5h-18.88L1488.11,163.65z M1713.88,68.97h7.64l-0.14,0.92l5.37,6.79
				l-8.42,39.67h-14.5l-3.18,14.5h-43.42l-9.12,43.21h-25.17l-5.38-6.79h-0.92l23.9-112.79h69.51l-0.14,0.92l5.37,6.79
				L1713.88,68.97z M1695.64,105.95h14.42l7.14-33.38h-14.5l3.04-14.43h-62.3l-22.42,105.5h18.81l9.26-43.28h43.49L1695.64,105.95z
				 M1697.34,76.96l-5.16,24.61h-39.1l5.16-24.61H1697.34z M1664.32,97.96h25.1l2.12-10.61h-25.03L1664.32,97.96z M1810.51,97.96
				h7.64l-0.28,0.85l5.38,6.79l-11.46,54.17h-14.5l-3.04,14.28h-54.17l-5.3-6.79h-0.92l1.63-7.5h-6.79l-5.37-6.79h-0.85l5.44-26.09
				h14.5l2.33-10.54h-6.79l-5.37-6.79h-0.85l5.45-26.09h69.51l-0.14,0.85l5.37,6.86L1810.51,97.96z M1789.08,149.37h14.43
				l10.18-47.8h-14.5l3.04-14.5h-62.3l-3.89,18.88h57.91l-2.19,10.11h-43.42l-3.04,14.5h-14.5l-4.03,18.81h14.5l-3.04,14.28h47.8
				L1789.08,149.37z M1787.74,134.88l-2.19,10.11h-39.1l2.19-10.11H1787.74z M1876.37,116.35h-10.54l-12.3,57.7h-25.17l-5.37-6.79
				h-0.92l17.82-83.79h55.08l-0.14,0.85l5.3,6.86l-1.42,6.79h7.64l-0.28,0.85l5.37,6.79l-5.37,25.24h-25.17l-5.37-6.79h-0.85
				L1876.37,116.35z M1879.13,120.38h18.88l3.89-18.81h-14.5l3.04-14.5h-47.8l-16.19,76.58h18.81l12.3-57.7h24.61L1879.13,120.38z
				 M1969.82,159.77h-6.79l-5.37-6.79h-0.85l1.56-7.64h-10.54l-6.08,28.71h-25.17l-5.37-6.79h-0.92l23.9-112.79h26.09l-0.14,0.92
				l5.37,6.79l-10.75,50.28h10.61l3.18-14.5h14.5l3.04-14.5h26.02l-0.14,0.85l5.38,6.86l-5.38,25.17h-14.5l-3.18,14.5h-3.75
				l3.04,3.75l-1.41,6.79h7.64l-0.28,0.92l5.38,6.79l-5.23,24.96h-25.17l-5.37-6.79h-0.85L1969.82,159.77z M1972.57,163.65h18.81
				l3.96-18.67h-14.5l3.18-14.42h-14.5l2.19-10.18h14.5l3.04-14.43h14.43l3.96-18.88h-18.81l-3.04,14.5h-14.5l-3.04,14.5h-24.61
				l12.3-57.91h-18.88l-22.42,105.5h18.81l6.08-28.78h24.61l-3.04,14.5h14.5L1972.57,163.65z"/>
		</defs>
		<clipPath id="SVGID_4_">
			<use xlink:href="#SVGID_3_"  style="overflow:visible;"/>
		</clipPath>
		<g class="st1">
			<line class="st2" x1="-139.93" y1="1.29" x2="173.75" y2="314.97"/>
			<line class="st2" x1="-134.18" y1="1.29" x2="179.51" y2="314.97"/>
			<line class="st2" x1="-128.42" y1="1.29" x2="185.26" y2="314.97"/>
			<line class="st2" x1="-122.67" y1="1.29" x2="191.01" y2="314.97"/>
			<line class="st2" x1="-116.91" y1="1.29" x2="196.77" y2="314.97"/>
			<line class="st2" x1="-111.16" y1="1.29" x2="202.52" y2="314.97"/>
			<line class="st2" x1="-105.41" y1="1.29" x2="208.28" y2="314.97"/>
			<line class="st2" x1="-99.65" y1="1.29" x2="214.03" y2="314.97"/>
			<line class="st2" x1="-93.9" y1="1.29" x2="219.78" y2="314.97"/>
			<line class="st2" x1="-88.14" y1="1.29" x2="225.54" y2="314.97"/>
			<line class="st2" x1="-82.39" y1="1.29" x2="231.29" y2="314.97"/>
			<line class="st2" x1="-76.64" y1="1.29" x2="237.05" y2="314.97"/>
			<line class="st2" x1="-70.88" y1="1.29" x2="242.8" y2="314.97"/>
			<line class="st2" x1="-65.13" y1="1.29" x2="248.55" y2="314.97"/>
			<line class="st2" x1="-59.37" y1="1.29" x2="254.31" y2="314.97"/>
			<line class="st2" x1="-53.62" y1="1.29" x2="260.06" y2="314.97"/>
			<line class="st2" x1="-47.87" y1="1.29" x2="265.82" y2="314.97"/>
			<line class="st2" x1="-42.11" y1="1.29" x2="271.57" y2="314.97"/>
			<line class="st2" x1="-36.36" y1="1.29" x2="277.32" y2="314.97"/>
			<line class="st2" x1="-30.6" y1="1.29" x2="283.08" y2="314.97"/>
			<line class="st2" x1="-24.85" y1="1.29" x2="288.83" y2="314.97"/>
			<line class="st2" x1="-19.1" y1="1.29" x2="294.59" y2="314.97"/>
			<line class="st2" x1="-13.34" y1="1.29" x2="300.34" y2="314.97"/>
			<line class="st2" x1="-7.59" y1="1.29" x2="306.1" y2="314.97"/>
			<line class="st2" x1="-1.83" y1="1.29" x2="311.85" y2="314.97"/>
			<line class="st2" x1="3.92" y1="1.29" x2="317.6" y2="314.97"/>
			<line class="st2" x1="9.68" y1="1.29" x2="323.36" y2="314.97"/>
			<line class="st2" x1="15.43" y1="1.29" x2="329.11" y2="314.97"/>
			<line class="st2" x1="21.18" y1="1.29" x2="334.87" y2="314.97"/>
			<line class="st2" x1="26.94" y1="1.29" x2="340.62" y2="314.97"/>
			<line class="st2" x1="32.69" y1="1.29" x2="346.37" y2="314.97"/>
			<line class="st2" x1="38.45" y1="1.29" x2="352.13" y2="314.97"/>
			<line class="st2" x1="44.2" y1="1.29" x2="357.88" y2="314.97"/>
			<line class="st2" x1="49.95" y1="1.29" x2="363.64" y2="314.97"/>
			<line class="st2" x1="55.71" y1="1.29" x2="369.39" y2="314.97"/>
			<line class="st2" x1="61.46" y1="1.29" x2="375.14" y2="314.97"/>
			<line class="st2" x1="67.22" y1="1.29" x2="380.9" y2="314.97"/>
			<line class="st2" x1="72.97" y1="1.29" x2="386.65" y2="314.97"/>
			<line class="st2" x1="78.72" y1="1.29" x2="392.41" y2="314.97"/>
			<line class="st2" x1="84.48" y1="1.29" x2="398.16" y2="314.97"/>
			<line class="st2" x1="90.23" y1="1.29" x2="403.91" y2="314.97"/>
			<line class="st2" x1="95.99" y1="1.29" x2="409.67" y2="314.97"/>
			<line class="st2" x1="101.74" y1="1.29" x2="415.42" y2="314.97"/>
			<line class="st2" x1="107.49" y1="1.29" x2="421.18" y2="314.97"/>
			<line class="st2" x1="113.25" y1="1.29" x2="426.93" y2="314.97"/>
			<line class="st2" x1="119" y1="1.29" x2="432.68" y2="314.97"/>
			<line class="st2" x1="124.76" y1="1.29" x2="438.44" y2="314.97"/>
			<line class="st2" x1="130.51" y1="1.29" x2="444.19" y2="314.97"/>
			<line class="st2" x1="136.26" y1="1.29" x2="449.95" y2="314.97"/>
			<line class="st2" x1="142.02" y1="1.29" x2="455.7" y2="314.97"/>
			<line class="st2" x1="147.77" y1="1.29" x2="461.46" y2="314.97"/>
			<line class="st2" x1="153.53" y1="1.29" x2="467.21" y2="314.97"/>
			<line class="st2" x1="159.28" y1="1.29" x2="472.96" y2="314.97"/>
			<line class="st2" x1="165.04" y1="1.29" x2="478.72" y2="314.97"/>
			<line class="st2" x1="170.79" y1="1.29" x2="484.47" y2="314.97"/>
			<line class="st2" x1="176.54" y1="1.29" x2="490.23" y2="314.97"/>
			<line class="st2" x1="182.3" y1="1.29" x2="495.98" y2="314.97"/>
			<line class="st2" x1="188.05" y1="1.29" x2="501.73" y2="314.97"/>
			<line class="st2" x1="193.81" y1="1.29" x2="507.49" y2="314.97"/>
			<line class="st2" x1="199.56" y1="1.29" x2="513.24" y2="314.97"/>
			<line class="st2" x1="205.31" y1="1.29" x2="519" y2="314.97"/>
			<line class="st2" x1="211.07" y1="1.29" x2="524.75" y2="314.97"/>
			<line class="st2" x1="216.82" y1="1.29" x2="530.5" y2="314.97"/>
			<line class="st2" x1="222.58" y1="1.29" x2="536.26" y2="314.97"/>
			<line class="st2" x1="228.33" y1="1.29" x2="542.01" y2="314.97"/>
			<line class="st2" x1="234.08" y1="1.29" x2="547.77" y2="314.97"/>
			<line class="st2" x1="239.84" y1="1.29" x2="553.52" y2="314.97"/>
			<line class="st2" x1="245.59" y1="1.29" x2="559.27" y2="314.97"/>
			<line class="st2" x1="251.35" y1="1.29" x2="565.03" y2="314.97"/>
			<line class="st2" x1="257.1" y1="1.29" x2="570.78" y2="314.97"/>
			<line class="st2" x1="262.85" y1="1.29" x2="576.54" y2="314.97"/>
			<line class="st2" x1="268.61" y1="1.29" x2="582.29" y2="314.97"/>
			<line class="st2" x1="274.36" y1="1.29" x2="588.04" y2="314.97"/>
			<line class="st2" x1="280.12" y1="1.29" x2="593.8" y2="314.97"/>
			<line class="st2" x1="285.87" y1="1.29" x2="599.55" y2="314.97"/>
			<line class="st2" x1="291.63" y1="1.29" x2="605.31" y2="314.97"/>
			<line class="st2" x1="297.38" y1="1.29" x2="611.06" y2="314.97"/>
			<line class="st2" x1="303.13" y1="1.29" x2="616.82" y2="314.97"/>
			<line class="st2" x1="308.89" y1="1.29" x2="622.57" y2="314.97"/>
			<line class="st2" x1="314.64" y1="1.29" x2="628.32" y2="314.97"/>
			<line class="st2" x1="320.4" y1="1.29" x2="634.08" y2="314.97"/>
			<line class="st2" x1="326.15" y1="1.29" x2="639.83" y2="314.97"/>
			<line class="st2" x1="331.9" y1="1.29" x2="645.59" y2="314.97"/>
			<line class="st2" x1="337.66" y1="1.29" x2="651.34" y2="314.97"/>
			<line class="st2" x1="343.41" y1="1.29" x2="657.09" y2="314.97"/>
			<line class="st2" x1="349.17" y1="1.29" x2="662.85" y2="314.97"/>
			<line class="st2" x1="354.92" y1="1.29" x2="668.6" y2="314.97"/>
			<line class="st2" x1="360.67" y1="1.29" x2="674.36" y2="314.97"/>
			<line class="st2" x1="366.43" y1="1.29" x2="680.11" y2="314.97"/>
			<line class="st2" x1="372.18" y1="1.29" x2="685.86" y2="314.97"/>
			<line class="st2" x1="377.94" y1="1.29" x2="691.62" y2="314.97"/>
			<line class="st2" x1="383.69" y1="1.29" x2="697.37" y2="314.97"/>
			<line class="st2" x1="389.44" y1="1.29" x2="703.13" y2="314.97"/>
			<line class="st2" x1="395.2" y1="1.29" x2="708.88" y2="314.97"/>
			<line class="st2" x1="400.95" y1="1.29" x2="714.63" y2="314.97"/>
			<line class="st2" x1="406.71" y1="1.29" x2="720.39" y2="314.97"/>
			<line class="st2" x1="412.46" y1="1.29" x2="726.14" y2="314.97"/>
			<line class="st2" x1="418.21" y1="1.29" x2="731.9" y2="314.97"/>
			<line class="st2" x1="423.97" y1="1.29" x2="737.65" y2="314.97"/>
			<line class="st2" x1="429.72" y1="1.29" x2="743.41" y2="314.97"/>
			<line class="st2" x1="435.48" y1="1.29" x2="749.16" y2="314.97"/>
			<line class="st2" x1="441.23" y1="1.29" x2="754.91" y2="314.97"/>
			<line class="st2" x1="446.99" y1="1.29" x2="760.67" y2="314.97"/>
			<line class="st2" x1="452.74" y1="1.29" x2="766.42" y2="314.97"/>
			<line class="st2" x1="458.49" y1="1.29" x2="772.18" y2="314.97"/>
			<line class="st2" x1="464.25" y1="1.29" x2="777.93" y2="314.97"/>
			<line class="st2" x1="470" y1="1.29" x2="783.68" y2="314.97"/>
			<line class="st2" x1="475.76" y1="1.29" x2="789.44" y2="314.97"/>
			<line class="st2" x1="481.51" y1="1.29" x2="795.19" y2="314.97"/>
			<line class="st2" x1="487.26" y1="1.29" x2="800.95" y2="314.97"/>
			<line class="st2" x1="493.02" y1="1.29" x2="806.7" y2="314.97"/>
			<line class="st2" x1="498.77" y1="1.29" x2="812.45" y2="314.97"/>
			<line class="st2" x1="504.53" y1="1.29" x2="818.21" y2="314.97"/>
			<line class="st2" x1="510.28" y1="1.29" x2="823.96" y2="314.97"/>
			<line class="st2" x1="516.03" y1="1.29" x2="829.72" y2="314.97"/>
			<line class="st2" x1="521.79" y1="1.29" x2="835.47" y2="314.97"/>
			<line class="st2" x1="527.54" y1="1.29" x2="841.22" y2="314.97"/>
			<line class="st2" x1="533.3" y1="1.29" x2="846.98" y2="314.97"/>
			<line class="st2" x1="539.05" y1="1.29" x2="852.73" y2="314.97"/>
			<line class="st2" x1="544.8" y1="1.29" x2="858.49" y2="314.97"/>
			<line class="st2" x1="550.56" y1="1.29" x2="864.24" y2="314.97"/>
			<line class="st2" x1="556.31" y1="1.29" x2="869.99" y2="314.97"/>
			<line class="st2" x1="562.07" y1="1.29" x2="875.75" y2="314.97"/>
			<line class="st2" x1="567.82" y1="1.29" x2="881.5" y2="314.97"/>
			<line class="st2" x1="573.57" y1="1.29" x2="887.26" y2="314.97"/>
			<line class="st2" x1="579.33" y1="1.29" x2="893.01" y2="314.97"/>
			<line class="st2" x1="585.08" y1="1.29" x2="898.77" y2="314.97"/>
			<line class="st2" x1="590.84" y1="1.29" x2="904.52" y2="314.97"/>
			<line class="st2" x1="596.59" y1="1.29" x2="910.27" y2="314.97"/>
			<line class="st2" x1="602.35" y1="1.29" x2="916.03" y2="314.97"/>
			<line class="st2" x1="608.1" y1="1.29" x2="921.78" y2="314.97"/>
			<line class="st2" x1="613.85" y1="1.29" x2="927.54" y2="314.97"/>
			<line class="st2" x1="619.61" y1="1.29" x2="933.29" y2="314.97"/>
			<line class="st2" x1="625.36" y1="1.29" x2="939.04" y2="314.97"/>
			<line class="st2" x1="631.12" y1="1.29" x2="944.8" y2="314.97"/>
			<line class="st2" x1="636.87" y1="1.29" x2="950.55" y2="314.97"/>
			<line class="st2" x1="642.62" y1="1.29" x2="956.31" y2="314.97"/>
			<line class="st2" x1="648.38" y1="1.29" x2="962.06" y2="314.97"/>
			<line class="st2" x1="654.13" y1="1.29" x2="967.81" y2="314.97"/>
			<line class="st2" x1="659.89" y1="1.29" x2="973.57" y2="314.97"/>
			<line class="st2" x1="665.64" y1="1.29" x2="979.32" y2="314.97"/>
			<line class="st2" x1="671.39" y1="1.29" x2="985.08" y2="314.97"/>
			<line class="st2" x1="677.15" y1="1.29" x2="990.83" y2="314.97"/>
			<line class="st2" x1="682.9" y1="1.29" x2="996.58" y2="314.97"/>
			<line class="st2" x1="688.66" y1="1.29" x2="1002.34" y2="314.97"/>
			<line class="st2" x1="694.41" y1="1.29" x2="1008.09" y2="314.97"/>
			<line class="st2" x1="700.16" y1="1.29" x2="1013.85" y2="314.97"/>
			<line class="st2" x1="705.92" y1="1.29" x2="1019.6" y2="314.97"/>
			<line class="st2" x1="711.67" y1="1.29" x2="1025.35" y2="314.97"/>
			<line class="st2" x1="717.43" y1="1.29" x2="1031.11" y2="314.97"/>
			<line class="st2" x1="723.18" y1="1.29" x2="1036.86" y2="314.97"/>
			<line class="st2" x1="728.93" y1="1.29" x2="1042.62" y2="314.97"/>
			<line class="st2" x1="734.69" y1="1.29" x2="1048.37" y2="314.97"/>
			<line class="st2" x1="740.44" y1="1.29" x2="1054.13" y2="314.97"/>
			<line class="st2" x1="746.2" y1="1.29" x2="1059.88" y2="314.97"/>
			<line class="st2" x1="751.95" y1="1.29" x2="1065.63" y2="314.97"/>
			<line class="st2" x1="757.71" y1="1.29" x2="1071.39" y2="314.97"/>
			<line class="st2" x1="763.46" y1="1.29" x2="1077.14" y2="314.97"/>
			<line class="st2" x1="769.21" y1="1.29" x2="1082.9" y2="314.97"/>
			<line class="st2" x1="774.97" y1="1.29" x2="1088.65" y2="314.97"/>
			<line class="st2" x1="780.72" y1="1.29" x2="1094.4" y2="314.97"/>
			<line class="st2" x1="786.48" y1="1.29" x2="1100.16" y2="314.97"/>
			<line class="st2" x1="792.23" y1="1.29" x2="1105.91" y2="314.97"/>
			<line class="st2" x1="797.98" y1="1.29" x2="1111.67" y2="314.97"/>
			<line class="st2" x1="803.74" y1="1.29" x2="1117.42" y2="314.97"/>
			<line class="st2" x1="809.49" y1="1.29" x2="1123.17" y2="314.97"/>
			<line class="st2" x1="815.25" y1="1.29" x2="1128.93" y2="314.97"/>
			<line class="st2" x1="821" y1="1.29" x2="1134.68" y2="314.97"/>
			<line class="st2" x1="826.75" y1="1.29" x2="1140.44" y2="314.97"/>
			<line class="st2" x1="832.51" y1="1.29" x2="1146.19" y2="314.97"/>
			<line class="st2" x1="838.26" y1="1.29" x2="1151.94" y2="314.97"/>
			<line class="st2" x1="844.02" y1="1.29" x2="1157.7" y2="314.97"/>
			<line class="st2" x1="849.77" y1="1.29" x2="1163.45" y2="314.97"/>
			<line class="st2" x1="855.52" y1="1.29" x2="1169.21" y2="314.97"/>
			<line class="st2" x1="861.28" y1="1.29" x2="1174.96" y2="314.97"/>
			<line class="st2" x1="867.03" y1="1.29" x2="1180.71" y2="314.97"/>
			<line class="st2" x1="872.79" y1="1.29" x2="1186.47" y2="314.97"/>
			<line class="st2" x1="878.54" y1="1.29" x2="1192.22" y2="314.97"/>
			<line class="st2" x1="884.29" y1="1.29" x2="1197.98" y2="314.97"/>
			<line class="st2" x1="890.05" y1="1.29" x2="1203.73" y2="314.97"/>
			<line class="st2" x1="895.8" y1="1.29" x2="1209.49" y2="314.97"/>
			<line class="st2" x1="901.56" y1="1.29" x2="1215.24" y2="314.97"/>
			<line class="st2" x1="907.31" y1="1.29" x2="1220.99" y2="314.97"/>
			<line class="st2" x1="913.07" y1="1.29" x2="1226.75" y2="314.97"/>
			<line class="st2" x1="918.82" y1="1.29" x2="1232.5" y2="314.97"/>
			<line class="st2" x1="924.57" y1="1.29" x2="1238.26" y2="314.97"/>
			<line class="st2" x1="930.33" y1="1.29" x2="1244.01" y2="314.97"/>
			<line class="st2" x1="936.08" y1="1.29" x2="1249.76" y2="314.97"/>
			<line class="st2" x1="941.84" y1="1.29" x2="1255.52" y2="314.97"/>
			<line class="st2" x1="947.59" y1="1.29" x2="1261.27" y2="314.97"/>
			<line class="st2" x1="953.34" y1="1.29" x2="1267.03" y2="314.97"/>
			<line class="st2" x1="959.1" y1="1.29" x2="1272.78" y2="314.97"/>
			<line class="st2" x1="964.85" y1="1.29" x2="1278.53" y2="314.97"/>
			<line class="st2" x1="970.61" y1="1.29" x2="1284.29" y2="314.97"/>
			<line class="st2" x1="976.36" y1="1.29" x2="1290.04" y2="314.97"/>
			<line class="st2" x1="982.11" y1="1.29" x2="1295.8" y2="314.97"/>
			<line class="st2" x1="987.87" y1="1.29" x2="1301.55" y2="314.97"/>
			<line class="st2" x1="993.62" y1="1.29" x2="1307.3" y2="314.97"/>
			<line class="st2" x1="999.38" y1="1.29" x2="1313.06" y2="314.97"/>
			<line class="st2" x1="1005.13" y1="1.29" x2="1318.81" y2="314.97"/>
			<line class="st2" x1="1010.88" y1="1.29" x2="1324.57" y2="314.97"/>
			<line class="st2" x1="1016.64" y1="1.29" x2="1330.32" y2="314.97"/>
			<line class="st2" x1="1022.39" y1="1.29" x2="1336.07" y2="314.97"/>
			<line class="st2" x1="1028.15" y1="1.29" x2="1341.83" y2="314.97"/>
			<line class="st2" x1="1033.9" y1="1.29" x2="1347.58" y2="314.97"/>
			<line class="st2" x1="1039.66" y1="1.29" x2="1353.34" y2="314.97"/>
			<line class="st2" x1="1045.41" y1="1.29" x2="1359.09" y2="314.97"/>
			<line class="st2" x1="1051.16" y1="1.29" x2="1364.85" y2="314.97"/>
			<line class="st2" x1="1056.92" y1="1.29" x2="1370.6" y2="314.97"/>
			<line class="st2" x1="1062.67" y1="1.29" x2="1376.35" y2="314.97"/>
			<line class="st2" x1="1068.43" y1="1.29" x2="1382.11" y2="314.97"/>
			<line class="st2" x1="1074.18" y1="1.29" x2="1387.86" y2="314.97"/>
			<line class="st2" x1="1079.93" y1="1.29" x2="1393.62" y2="314.97"/>
			<line class="st2" x1="1085.69" y1="1.29" x2="1399.37" y2="314.97"/>
			<line class="st2" x1="1091.44" y1="1.29" x2="1405.12" y2="314.97"/>
			<line class="st2" x1="1097.2" y1="1.29" x2="1410.88" y2="314.97"/>
			<line class="st2" x1="1102.95" y1="1.29" x2="1416.63" y2="314.97"/>
			<line class="st2" x1="1108.7" y1="1.29" x2="1422.39" y2="314.97"/>
			<line class="st2" x1="1114.46" y1="1.29" x2="1428.14" y2="314.97"/>
			<line class="st2" x1="1120.21" y1="1.29" x2="1433.89" y2="314.97"/>
			<line class="st2" x1="1125.97" y1="1.29" x2="1439.65" y2="314.97"/>
			<line class="st2" x1="1131.72" y1="1.29" x2="1445.4" y2="314.97"/>
			<line class="st2" x1="1137.47" y1="1.29" x2="1451.16" y2="314.97"/>
			<line class="st2" x1="1143.23" y1="1.29" x2="1456.91" y2="314.97"/>
			<line class="st2" x1="1148.98" y1="1.29" x2="1462.66" y2="314.97"/>
			<line class="st2" x1="1154.74" y1="1.29" x2="1468.42" y2="314.97"/>
			<line class="st2" x1="1160.49" y1="1.29" x2="1474.17" y2="314.97"/>
			<line class="st2" x1="1166.24" y1="1.29" x2="1479.93" y2="314.97"/>
			<line class="st2" x1="1172" y1="1.29" x2="1485.68" y2="314.97"/>
			<line class="st2" x1="1177.75" y1="1.29" x2="1491.44" y2="314.97"/>
			<line class="st2" x1="1183.51" y1="1.29" x2="1497.19" y2="314.97"/>
			<line class="st2" x1="1189.26" y1="1.29" x2="1502.94" y2="314.97"/>
			<line class="st2" x1="1195.02" y1="1.29" x2="1508.7" y2="314.97"/>
			<line class="st2" x1="1200.77" y1="1.29" x2="1514.45" y2="314.97"/>
			<line class="st2" x1="1206.52" y1="1.29" x2="1520.21" y2="314.97"/>
			<line class="st2" x1="1212.28" y1="1.29" x2="1525.96" y2="314.97"/>
			<line class="st2" x1="1218.03" y1="1.29" x2="1531.71" y2="314.97"/>
			<line class="st2" x1="1223.79" y1="1.29" x2="1537.47" y2="314.97"/>
			<line class="st2" x1="1229.54" y1="1.29" x2="1543.22" y2="314.97"/>
			<line class="st2" x1="1235.29" y1="1.29" x2="1548.98" y2="314.97"/>
			<line class="st2" x1="1241.05" y1="1.29" x2="1554.73" y2="314.97"/>
			<line class="st2" x1="1246.8" y1="1.29" x2="1560.48" y2="314.97"/>
			<line class="st2" x1="1252.56" y1="1.29" x2="1566.24" y2="314.97"/>
			<line class="st2" x1="1258.31" y1="1.29" x2="1571.99" y2="314.97"/>
			<line class="st2" x1="1264.06" y1="1.29" x2="1577.75" y2="314.97"/>
			<line class="st2" x1="1269.82" y1="1.29" x2="1583.5" y2="314.97"/>
			<line class="st2" x1="1275.57" y1="1.29" x2="1589.25" y2="314.97"/>
			<line class="st2" x1="1281.33" y1="1.29" x2="1595.01" y2="314.97"/>
			<line class="st2" x1="1287.08" y1="1.29" x2="1600.76" y2="314.97"/>
			<line class="st2" x1="1292.83" y1="1.29" x2="1606.52" y2="314.97"/>
			<line class="st2" x1="1298.59" y1="1.29" x2="1612.27" y2="314.97"/>
			<line class="st2" x1="1304.34" y1="1.29" x2="1618.02" y2="314.97"/>
			<line class="st2" x1="1310.1" y1="1.29" x2="1623.78" y2="314.97"/>
			<line class="st2" x1="1315.85" y1="1.29" x2="1629.53" y2="314.97"/>
			<line class="st2" x1="1321.6" y1="1.29" x2="1635.29" y2="314.97"/>
			<line class="st2" x1="1327.36" y1="1.29" x2="1641.04" y2="314.97"/>
			<line class="st2" x1="1333.11" y1="1.29" x2="1646.8" y2="314.97"/>
			<line class="st2" x1="1338.87" y1="1.29" x2="1652.55" y2="314.97"/>
			<line class="st2" x1="1344.62" y1="1.29" x2="1658.3" y2="314.97"/>
			<line class="st2" x1="1350.38" y1="1.29" x2="1664.06" y2="314.97"/>
			<line class="st2" x1="1356.13" y1="1.29" x2="1669.81" y2="314.97"/>
			<line class="st2" x1="1361.88" y1="1.29" x2="1675.57" y2="314.97"/>
			<line class="st2" x1="1367.64" y1="1.29" x2="1681.32" y2="314.97"/>
			<line class="st2" x1="1373.39" y1="1.29" x2="1687.07" y2="314.97"/>
			<line class="st2" x1="1379.15" y1="1.29" x2="1692.83" y2="314.97"/>
			<line class="st2" x1="1384.9" y1="1.29" x2="1698.58" y2="314.97"/>
			<line class="st2" x1="1390.65" y1="1.29" x2="1704.34" y2="314.97"/>
			<line class="st2" x1="1396.41" y1="1.29" x2="1710.09" y2="314.97"/>
			<line class="st2" x1="1402.16" y1="1.29" x2="1715.84" y2="314.97"/>
			<line class="st2" x1="1407.92" y1="1.29" x2="1721.6" y2="314.97"/>
			<line class="st2" x1="1413.67" y1="1.29" x2="1727.35" y2="314.97"/>
			<line class="st2" x1="1419.42" y1="1.29" x2="1733.11" y2="314.97"/>
			<line class="st2" x1="1425.18" y1="1.29" x2="1738.86" y2="314.97"/>
			<line class="st2" x1="1430.93" y1="1.29" x2="1744.61" y2="314.97"/>
			<line class="st2" x1="1436.69" y1="1.29" x2="1750.37" y2="314.97"/>
			<line class="st2" x1="1442.44" y1="1.29" x2="1756.12" y2="314.97"/>
			<line class="st2" x1="1448.19" y1="1.29" x2="1761.88" y2="314.97"/>
			<line class="st2" x1="1453.95" y1="1.29" x2="1767.63" y2="314.97"/>
			<line class="st2" x1="1459.7" y1="1.29" x2="1773.38" y2="314.97"/>
			<line class="st2" x1="1465.46" y1="1.29" x2="1779.14" y2="314.97"/>
			<line class="st2" x1="1471.21" y1="1.29" x2="1784.89" y2="314.97"/>
			<line class="st2" x1="1476.96" y1="1.29" x2="1790.65" y2="314.97"/>
			<line class="st2" x1="1482.72" y1="1.29" x2="1796.4" y2="314.97"/>
			<line class="st2" x1="1488.47" y1="1.29" x2="1802.16" y2="314.97"/>
			<line class="st2" x1="1494.23" y1="1.29" x2="1807.91" y2="314.97"/>
			<line class="st2" x1="1499.98" y1="1.29" x2="1813.66" y2="314.97"/>
			<line class="st2" x1="1505.74" y1="1.29" x2="1819.42" y2="314.97"/>
			<line class="st2" x1="1511.49" y1="1.29" x2="1825.17" y2="314.97"/>
			<line class="st2" x1="1517.24" y1="1.29" x2="1830.93" y2="314.97"/>
			<line class="st2" x1="1523" y1="1.29" x2="1836.68" y2="314.97"/>
			<line class="st2" x1="1528.75" y1="1.29" x2="1842.43" y2="314.97"/>
			<line class="st2" x1="1534.51" y1="1.29" x2="1848.19" y2="314.97"/>
			<line class="st2" x1="1540.26" y1="1.29" x2="1853.94" y2="314.97"/>
			<line class="st2" x1="1546.01" y1="1.29" x2="1859.7" y2="314.97"/>
			<line class="st2" x1="1551.77" y1="1.29" x2="1865.45" y2="314.97"/>
			<line class="st2" x1="1557.52" y1="1.29" x2="1871.2" y2="314.97"/>
			<line class="st2" x1="1563.28" y1="1.29" x2="1876.96" y2="314.97"/>
			<line class="st2" x1="1569.03" y1="1.29" x2="1882.71" y2="314.97"/>
			<line class="st2" x1="1574.78" y1="1.29" x2="1888.47" y2="314.97"/>
			<line class="st2" x1="1580.54" y1="1.29" x2="1894.22" y2="314.97"/>
			<line class="st2" x1="1586.29" y1="1.29" x2="1899.97" y2="314.97"/>
			<line class="st2" x1="1592.05" y1="1.29" x2="1905.73" y2="314.97"/>
			<line class="st2" x1="1597.8" y1="1.29" x2="1911.48" y2="314.97"/>
			<line class="st2" x1="1603.55" y1="1.29" x2="1917.24" y2="314.97"/>
			<line class="st2" x1="1609.31" y1="1.29" x2="1922.99" y2="314.97"/>
			<line class="st2" x1="1615.06" y1="1.29" x2="1928.74" y2="314.97"/>
			<line class="st2" x1="1620.82" y1="1.29" x2="1934.5" y2="314.97"/>
			<line class="st2" x1="1626.57" y1="1.29" x2="1940.25" y2="314.97"/>
			<line class="st2" x1="1632.32" y1="1.29" x2="1946.01" y2="314.97"/>
			<line class="st2" x1="1638.08" y1="1.29" x2="1951.76" y2="314.97"/>
			<line class="st2" x1="1643.83" y1="1.29" x2="1957.52" y2="314.97"/>
			<line class="st2" x1="1649.59" y1="1.29" x2="1963.27" y2="314.97"/>
			<line class="st2" x1="1655.34" y1="1.29" x2="1969.02" y2="314.97"/>
			<line class="st2" x1="1661.1" y1="1.29" x2="1974.78" y2="314.97"/>
			<line class="st2" x1="1666.85" y1="1.29" x2="1980.53" y2="314.97"/>
			<line class="st2" x1="1672.6" y1="1.29" x2="1986.29" y2="314.97"/>
			<line class="st2" x1="1678.36" y1="1.29" x2="1992.04" y2="314.97"/>
			<line class="st2" x1="1684.11" y1="1.29" x2="1997.79" y2="314.97"/>
			<line class="st2" x1="1689.87" y1="1.29" x2="2003.55" y2="314.97"/>
			<line class="st2" x1="1695.62" y1="1.29" x2="2009.3" y2="314.97"/>
			<line class="st2" x1="1701.37" y1="1.29" x2="2015.06" y2="314.97"/>
			<line class="st2" x1="1707.13" y1="1.29" x2="2020.81" y2="314.97"/>
			<line class="st2" x1="1712.88" y1="1.29" x2="2026.56" y2="314.97"/>
			<line class="st2" x1="1718.64" y1="1.29" x2="2032.32" y2="314.97"/>
			<line class="st2" x1="1724.39" y1="1.29" x2="2038.07" y2="314.97"/>
			<line class="st2" x1="1730.14" y1="1.29" x2="2043.83" y2="314.97"/>
			<line class="st2" x1="1735.9" y1="1.29" x2="2049.58" y2="314.97"/>
			<line class="st2" x1="1741.65" y1="1.29" x2="2055.33" y2="314.97"/>
			<line class="st2" x1="1747.41" y1="1.29" x2="2061.09" y2="314.97"/>
			<line class="st2" x1="1753.16" y1="1.29" x2="2066.84" y2="314.97"/>
			<line class="st2" x1="1758.91" y1="1.29" x2="2072.6" y2="314.97"/>
			<line class="st2" x1="1764.67" y1="1.29" x2="2078.35" y2="314.97"/>
			<line class="st2" x1="1770.42" y1="1.29" x2="2084.1" y2="314.97"/>
			<line class="st2" x1="1776.18" y1="1.29" x2="2089.86" y2="314.97"/>
			<line class="st2" x1="1781.93" y1="1.29" x2="2095.61" y2="314.97"/>
			<line class="st2" x1="1787.68" y1="1.29" x2="2101.37" y2="314.97"/>
			<line class="st2" x1="1793.44" y1="1.29" x2="2107.12" y2="314.97"/>
			<line class="st2" x1="1799.19" y1="1.29" x2="2112.88" y2="314.97"/>
			<line class="st2" x1="1804.95" y1="1.29" x2="2118.63" y2="314.97"/>
			<line class="st2" x1="1810.7" y1="1.29" x2="2124.38" y2="314.97"/>
			<line class="st2" x1="1816.46" y1="1.29" x2="2130.14" y2="314.97"/>
			<line class="st2" x1="1822.21" y1="1.29" x2="2135.89" y2="314.97"/>
			<line class="st2" x1="1827.96" y1="1.29" x2="2141.65" y2="314.97"/>
			<line class="st2" x1="1833.72" y1="1.29" x2="2147.4" y2="314.97"/>
			<line class="st2" x1="1839.47" y1="1.29" x2="2153.15" y2="314.97"/>
			<line class="st2" x1="1845.23" y1="1.29" x2="2158.91" y2="314.97"/>
			<line class="st2" x1="1850.98" y1="1.29" x2="2164.66" y2="314.97"/>
			<line class="st2" x1="1856.73" y1="1.29" x2="2170.42" y2="314.97"/>
			<line class="st2" x1="1862.49" y1="1.29" x2="2176.17" y2="314.97"/>
			<line class="st2" x1="1868.24" y1="1.29" x2="2181.92" y2="314.97"/>
			<line class="st2" x1="1874" y1="1.29" x2="2187.68" y2="314.97"/>
			<line class="st2" x1="1879.75" y1="1.29" x2="2193.43" y2="314.97"/>
			<line class="st2" x1="1885.5" y1="1.29" x2="2199.19" y2="314.97"/>
			<line class="st2" x1="1891.26" y1="1.29" x2="2204.94" y2="314.97"/>
			<line class="st2" x1="1897.01" y1="1.29" x2="2210.69" y2="314.97"/>
			<line class="st2" x1="1902.77" y1="1.29" x2="2216.45" y2="314.97"/>
			<line class="st2" x1="1908.52" y1="1.29" x2="2222.2" y2="314.97"/>
			<line class="st2" x1="1914.27" y1="1.29" x2="2227.96" y2="314.97"/>
			<line class="st2" x1="1920.03" y1="1.29" x2="2233.71" y2="314.97"/>
			<line class="st2" x1="1925.78" y1="1.29" x2="2239.47" y2="314.97"/>
			<line class="st2" x1="1931.54" y1="1.29" x2="2245.22" y2="314.97"/>
			<line class="st2" x1="1937.29" y1="1.29" x2="2250.97" y2="314.97"/>
			<line class="st2" x1="1943.05" y1="1.29" x2="2256.73" y2="314.97"/>
			<line class="st2" x1="1948.8" y1="1.29" x2="2262.48" y2="314.97"/>
			<line class="st2" x1="1954.55" y1="1.29" x2="2268.24" y2="314.97"/>
			<line class="st2" x1="1960.31" y1="1.29" x2="2273.99" y2="314.97"/>
			<line class="st2" x1="1966.06" y1="1.29" x2="2279.74" y2="314.97"/>
			<line class="st2" x1="1971.82" y1="1.29" x2="2285.5" y2="314.97"/>
			<line class="st2" x1="1977.57" y1="1.29" x2="2291.25" y2="314.97"/>
			<line class="st2" x1="1983.32" y1="1.29" x2="2297.01" y2="314.97"/>
			<line class="st2" x1="1989.08" y1="1.29" x2="2302.76" y2="314.97"/>
			<line class="st2" x1="1994.83" y1="1.29" x2="2308.51" y2="314.97"/>
			<line class="st2" x1="2000.59" y1="1.29" x2="2314.27" y2="314.97"/>
			<line class="st2" x1="2006.34" y1="1.29" x2="2320.02" y2="314.97"/>
			<line class="st2" x1="2012.09" y1="1.29" x2="2325.78" y2="314.97"/>
			<line class="st2" x1="2017.85" y1="1.29" x2="2331.53" y2="314.97"/>
			<line class="st2" x1="2023.6" y1="1.29" x2="2337.28" y2="314.97"/>
			<line class="st2" x1="2029.36" y1="1.29" x2="2343.04" y2="314.97"/>
			<line class="st2" x1="2035.11" y1="1.29" x2="2348.79" y2="314.97"/>
			<line class="st2" x1="2040.86" y1="1.29" x2="2354.55" y2="314.97"/>
			<line class="st2" x1="2046.62" y1="1.29" x2="2360.3" y2="314.97"/>
			<line class="st2" x1="2052.37" y1="1.29" x2="2366.05" y2="314.97"/>
			<line class="st2" x1="2058.13" y1="1.29" x2="2371.81" y2="314.97"/>
			<line class="st2" x1="2063.88" y1="1.29" x2="2377.56" y2="314.97"/>
			<line class="st2" x1="2069.63" y1="1.29" x2="2383.32" y2="314.97"/>
			<line class="st2" x1="2075.39" y1="1.29" x2="2389.07" y2="314.97"/>
		</g>
	</g>
</g>
<line class="st3" x1="117.2" y1="132.98" x2="2000.76" y2="132.98"/>
<line class="st3" x1="117.2" y1="139.85" x2="422.09" y2="139.85"/>
<line class="st3" x1="518.1" y1="139.85" x2="1063.38" y2="139.85"/>
<line class="st3" x1="1165.25" y1="139.85" x2="1522.91" y2="139.85"/>
<line class="st3" x1="1621.85" y1="139.85" x2="2000.76" y2="139.85"/>
<g>
</g>
<g>
</g>
<g>
</g>
<g>
</g>
<g>
</g>
<g>
</g>
</svg>
